<?xml version="1.0" standalone="no"?>
<!DOCTYPE svg PUBLIC "-//W3C//DTD SVG 20010904//EN"
 "http://www.w3.org/TR/2001/REC-SVG-20010904/DTD/svg10.dtd">
<svg version="1.0" xmlns="http://www.w3.org/2000/svg"
 width="3566.000000pt" height="2716.000000pt" viewBox="0 0 3566.000000 2716.000000"
 preserveAspectRatio="xMidYMid meet">

<g transform="translate(0.000000,2716.000000) scale(0.100000,-0.100000)"
fill="#000000" stroke="none">
<path d="M754 26920 c-123 -40 -206 -148 -206 -266 -1 -77 14 -123 58 -180 31
-40 34 -51 34 -109 0 -41 4 -65 11 -65 6 0 37 16 68 35 53 32 63 34 141 34 73
0 91 4 146 31 102 50 156 135 157 250 0 79 -17 123 -74 185 -88 95 -210 126
-335 85z m223 -58 c100 -51 154 -159 132 -261 -25 -118 -114 -181 -254 -181
-69 0 -86 -4 -116 -25 -42 -28 -49 -25 -49 23 0 24 -9 45 -31 70 -17 20 -38
51 -46 71 -22 52 -19 140 6 188 27 53 94 110 151 128 60 20 154 13 207 -13z"/>
<path d="M680 26675 c-20 -25 -8 -50 25 -50 24 0 31 5 33 24 6 37 -34 55 -58
26z"/>
<path d="M830 26675 c-20 -25 -8 -50 25 -50 21 0 31 5 33 18 4 21 -14 47 -33
47 -7 0 -18 -7 -25 -15z"/>
<path d="M980 26675 c-20 -25 -8 -50 25 -50 21 0 31 5 33 18 4 21 -14 47 -33
47 -7 0 -18 -7 -25 -15z"/>
<path d="M1722 26753 c-37 -7 -108 -83 -121 -128 -40 -147 21 -280 141 -304
96 -19 165 11 206 89 l22 45 -37 13 c-41 14 -63 10 -63 -11 0 -7 -10 -23 -22
-34 -71 -65 -149 -22 -164 89 -13 92 33 168 101 168 35 0 85 -33 85 -56 0 -10
6 -14 18 -10 9 2 31 7 49 11 30 6 31 8 21 33 -36 84 -119 117 -236 95z"/>
<path d="M2040 26535 l0 -215 39 0 39 0 4 110 c3 120 13 143 63 143 44 0 50
-16 53 -138 l4 -115 39 0 39 0 0 131 0 131 -29 29 c-24 23 -38 29 -73 29 -24
0 -53 -7 -64 -15 -10 -8 -22 -15 -26 -15 -5 0 -8 32 -8 70 l0 70 -40 0 -40 0
0 -215z"/>
<path d="M3122 26540 c-45 -115 -82 -211 -82 -215 0 -3 22 -5 48 -5 l48 0 15
48 15 47 86 3 86 3 18 -51 18 -50 48 0 c26 0 48 3 48 7 0 4 -37 101 -82 215
l-83 208 -51 0 -51 0 -81 -210z m178 -36 c0 -10 -14 -14 -51 -14 -57 0 -56 -7
-16 99 l20 54 23 -63 c13 -34 24 -69 24 -76z"/>
<path d="M2773 26718 c-25 -15 -33 -27 -33 -48 0 -19 -6 -29 -20 -33 -15 -4
-20 -14 -20 -36 0 -24 4 -31 20 -31 19 0 20 -7 20 -104 0 -138 14 -155 123
-148 19 1 27 7 27 21 0 35 -12 51 -36 51 -24 0 -24 2 -24 90 0 89 0 90 25 90
22 0 25 4 25 35 0 31 -3 35 -25 35 -23 0 -25 3 -25 50 0 56 -7 60 -57 28z"/>
<path d="M1216 26676 c-4 -16 1 -37 15 -61 58 -99 28 -239 -62 -292 -23 -14
-29 -25 -31 -60 l-3 -43 -37 25 c-31 21 -49 25 -105 25 -55 0 -76 5 -108 25
-40 24 -95 33 -95 16 0 -5 12 -18 28 -29 60 -42 98 -55 169 -58 63 -2 80 -7
132 -38 32 -20 61 -36 65 -36 3 0 6 28 6 63 0 60 2 65 39 101 103 100 111 277
17 365 l-24 22 -6 -25z"/>
<path d="M32686 26670 c-40 -12 -65 -38 -76 -79 -12 -44 2 -100 30 -126 28
-25 109 -31 148 -11 29 15 32 21 32 61 l0 45 -50 0 c-38 0 -50 -4 -50 -15 0
-10 11 -15 35 -15 28 0 35 -4 35 -20 0 -24 -28 -40 -73 -40 -46 0 -77 34 -77
84 0 48 12 70 48 85 33 14 79 1 88 -24 8 -19 34 -20 34 0 0 19 -35 55 -54 55
-8 0 -20 2 -28 4 -7 2 -26 0 -42 -4z"/>
<path d="M34300 26555 l0 -115 70 0 c56 0 70 3 70 15 0 12 -13 15 -55 15 l-55
0 0 100 c0 82 -3 100 -15 100 -12 0 -15 -19 -15 -115z"/>
<path d="M34830 26655 c0 -8 7 -15 15 -15 8 0 15 7 15 15 0 8 -7 15 -15 15 -8
0 -15 -7 -15 -15z"/>
<path d="M2424 26606 c-19 -19 -34 -39 -34 -45 0 -5 15 -13 34 -16 26 -5 41
-2 63 15 24 17 34 19 56 11 16 -6 27 -18 27 -29 0 -14 -15 -21 -72 -35 -87
-20 -113 -42 -113 -97 0 -57 37 -92 98 -92 27 -1 56 6 72 16 22 15 26 15 31 1
4 -10 20 -15 50 -15 43 0 43 1 34 26 -6 14 -10 73 -10 130 0 103 -1 106 -29
135 -27 27 -35 29 -101 29 -69 0 -74 -2 -106 -34z m145 -178 c-5 -17 -14 -35
-21 -40 -38 -23 -92 7 -71 40 10 17 81 43 95 36 3 -3 2 -19 -3 -36z"/>
<path d="M3510 26420 l0 -220 45 0 45 0 0 74 0 74 38 -19 c95 -49 192 41 179
167 -7 66 -29 110 -67 129 -42 22 -102 19 -134 -6 l-26 -20 0 20 c0 18 -6 21
-40 21 l-40 0 0 -220z m200 123 c18 -23 21 -37 17 -76 -5 -56 -24 -79 -63 -79
-41 0 -64 34 -64 93 0 83 65 119 110 62z"/>
<path d="M3880 26420 l0 -220 40 0 40 0 0 68 c0 77 6 89 31 66 23 -21 88 -23
123 -4 85 45 97 212 20 280 -43 38 -107 42 -148 9 l-26 -20 0 20 c0 18 -6 21
-40 21 l-40 0 0 -220z m193 132 c38 -42 28 -139 -16 -159 -27 -13 -62 -1 -76
26 -16 29 -13 103 5 129 19 27 64 29 87 4z"/>
<path d="M32860 26523 c0 -67 3 -83 15 -83 12 0 15 13 15 58 0 64 6 78 34 83
11 2 21 10 23 16 3 9 -9 12 -41 11 l-46 -2 0 -83z"/>
<path d="M32979 26591 c-19 -15 -24 -28 -23 -65 1 -60 24 -86 75 -86 29 0 42
6 58 26 44 56 12 144 -54 144 -18 0 -43 -9 -56 -19z m81 -21 c11 -11 20 -31
20 -45 0 -24 -31 -65 -48 -65 -25 0 -46 30 -46 65 0 25 6 42 19 51 25 18 31
18 55 -6z"/>
<path d="M33140 26541 c0 -50 4 -74 16 -85 18 -19 65 -21 82 -4 9 9 12 9 12 0
0 -7 7 -12 15 -12 12 0 15 16 15 85 0 69 -3 85 -15 85 -12 0 -15 -13 -15 -55
0 -66 -26 -103 -60 -85 -17 9 -20 21 -20 75 0 51 -3 65 -15 65 -12 0 -15 -14
-15 -69z"/>
<path d="M33320 26493 c0 -94 3 -113 15 -113 10 0 15 10 15 33 0 31 2 33 29
29 16 -2 38 1 49 7 24 13 43 70 35 103 -11 44 -32 57 -89 56 l-54 -2 0 -113z
m100 82 c19 -22 15 -87 -6 -102 -23 -17 -29 -16 -48 3 -21 20 -20 73 1 96 20
22 36 23 53 3z"/>
<path d="M33506 26594 c-31 -30 -16 -60 40 -79 26 -9 39 -19 39 -31 0 -27 -33
-29 -59 -5 -12 12 -26 18 -29 14 -22 -21 15 -53 63 -53 31 0 43 5 56 24 21 34
7 57 -47 76 -23 8 -44 20 -46 26 -6 19 29 25 53 9 26 -17 44 -19 44 -6 0 20
-33 41 -65 41 -18 0 -41 -7 -49 -16z"/>
<path d="M34490 26590 c-14 -14 -20 -33 -20 -65 0 -56 25 -85 75 -85 47 0 75
31 75 85 0 74 -81 114 -130 65z m78 -16 c27 -18 30 -69 5 -96 -32 -35 -73 -9
-73 47 0 30 21 65 38 65 4 0 18 -7 30 -16z"/>
<path d="M34666 26591 c-57 -63 2 -179 73 -141 24 12 28 1 11 -31 -13 -23 -47
-25 -72 -2 -20 18 -34 12 -24 -12 8 -21 52 -36 82 -29 43 11 54 40 54 139 l0
91 -54 2 c-40 1 -58 -3 -70 -17z m76 -18 c20 -18 24 -73 6 -91 -21 -21 -58
-14 -68 14 -14 37 -12 52 10 74 24 24 28 25 52 3z"/>
<path d="M34830 26525 c0 -69 3 -85 15 -85 12 0 15 16 15 85 0 69 -3 85 -15
85 -12 0 -15 -16 -15 -85z"/>
<path d="M34900 26525 c0 -69 3 -85 15 -85 12 0 15 13 15 55 0 66 26 103 60
85 17 -9 20 -21 20 -75 0 -51 3 -65 15 -65 22 0 21 132 -1 154 -18 19 -65 21
-82 4 -9 -9 -12 -9 -12 0 0 7 -7 12 -15 12 -12 0 -15 -16 -15 -85z"/>
<path d="M17840 13560 l0 -5500 -3762 0 c-3637 0 -3764 1 -3803 19 -48 22 -79
54 -100 103 -13 33 -15 303 -15 2537 l0 2500 -121 98 c-489 395 -823 635
-1234 886 -71 44 -150 91 -175 105 -25 13 -49 28 -55 32 -37 26 -419 223 -560
287 -172 79 -211 96 -374 160 -150 59 -393 143 -501 173 -25 7 -56 16 -70 21
-34 12 -174 48 -235 60 -27 6 -66 15 -85 19 -122 27 -338 66 -450 79 -47 6
-130 16 -185 23 -136 17 -755 17 -895 0 -231 -28 -295 -38 -470 -72 -176 -35
-361 -81 -480 -119 -30 -10 -77 -25 -105 -34 -118 -37 -364 -132 -515 -199
-121 -54 -452 -225 -502 -260 -14 -10 -29 -18 -32 -18 -3 0 -37 -20 -76 -45
-39 -25 -73 -45 -76 -45 -3 0 -24 -13 -47 -28 -23 -16 -78 -53 -122 -82 -295
-197 -667 -492 -925 -735 -305 -287 -687 -697 -895 -960 -22 -27 -42 -52 -45
-55 -7 -6 -211 -272 -291 -380 -78 -104 -355 -508 -416 -605 -74 -119 -177
-285 -201 -326 l-22 -36 0 -5582 0 -5581 17830 0 17830 0 0 6725 0 6726 -117
-82 c-225 -156 -456 -302 -648 -409 -75 -42 -400 -205 -465 -233 -99 -43 -297
-122 -370 -146 -36 -12 -74 -26 -85 -31 -11 -5 -58 -20 -105 -34 -47 -14 -98
-30 -115 -35 -175 -54 -512 -119 -795 -153 -142 -17 -788 -17 -930 0 -479 58
-791 126 -1210 263 -114 37 -330 114 -385 138 -11 5 -31 13 -45 19 -14 5 -46
19 -72 31 -26 12 -50 21 -53 21 -2 0 -30 12 -62 26 -32 14 -67 30 -78 34 -43
18 -513 251 -575 285 -295 164 -454 258 -705 418 -104 67 -514 348 -585 402
-30 23 -91 68 -135 100 -119 88 -282 215 -444 345 -79 63 -158 126 -175 140
-33 26 -217 180 -226 190 -3 3 -32 27 -65 55 -33 27 -62 52 -65 55 -3 3 -27
24 -55 45 -27 22 -52 42 -55 46 -7 8 -129 103 -250 195 -102 78 -392 280 -457
320 -18 10 -79 47 -135 81 -158 95 -217 126 -438 234 -113 55 -212 104 -220
108 -13 7 -16 190 -20 1522 -5 1459 -6 1515 -24 1552 -21 43 -64 79 -115 96
-25 8 -1008 11 -3787 11 l-3754 0 0 -5500z m6463 1060 c10 0 32 -13 48 -29 23
-23 29 -38 29 -71 0 -34 -7 -48 -44 -88 -24 -26 -46 -59 -50 -74 -5 -21 -12
-28 -31 -28 -47 0 -28 76 34 134 40 38 42 79 5 102 -35 23 -74 9 -93 -33 -12
-28 -18 -32 -40 -26 -14 3 -27 7 -29 8 -7 6 26 71 41 83 22 18 68 32 92 27 11
-3 28 -5 38 -5z m-5066 -26 c50 -37 68 -81 68 -164 0 -83 -18 -127 -68 -164
-24 -18 -45 -22 -138 -24 l-109 -4 0 192 0 192 109 -4 c93 -2 114 -6 138 -24z
m753 -13 c0 -65 -11 -101 -30 -101 -21 0 -30 27 -30 93 0 46 1 47 30 47 28 0
30 -2 30 -39z m390 -21 c0 -57 1 -60 19 -50 11 5 39 10 64 10 34 0 49 -6 68
-26 22 -23 24 -35 28 -140 l3 -114 -31 0 -31 0 0 96 c0 109 -9 134 -48 134
-56 0 -72 -32 -72 -144 0 -85 0 -86 -25 -86 l-25 0 0 190 0 190 25 0 c24 0 25
-3 25 -60z m-280 5 c0 -41 2 -45 25 -45 20 0 25 -5 25 -25 0 -20 -5 -25 -25
-25 l-26 0 3 -87 c3 -81 5 -88 24 -91 27 -4 40 -51 15 -53 -83 -8 -91 3 -91
126 0 94 -2 103 -20 108 -11 3 -20 13 -20 22 0 9 9 19 20 22 14 4 20 14 20 36
0 27 22 56 43 57 4 0 7 -20 7 -45z m3960 0 c0 -41 2 -45 25 -45 20 0 25 -5 25
-25 0 -20 -5 -25 -25 -25 l-26 0 3 -87 c3 -81 5 -88 24 -91 27 -4 40 -51 15
-53 -83 -8 -91 3 -91 126 0 94 -2 103 -20 108 -11 3 -20 13 -20 22 0 9 9 19
20 22 14 4 20 14 20 36 0 27 22 56 43 57 4 0 7 -20 7 -45z m-4501 -70 c74 -63
61 -209 -23 -249 -43 -20 -79 -20 -120 -1 -44 21 -67 64 -67 128 -2 96 43 147
128 147 41 0 58 -5 82 -25z m141 8 c0 -15 1 -15 18 0 19 17 85 23 117 11 33
-13 45 -59 45 -169 l0 -105 -30 0 -30 0 0 103 c0 111 -6 127 -49 127 -50 0
-56 -12 -61 -122 l-5 -103 -27 -3 -28 -3 0 140 0 141 25 0 c17 0 25 -6 25 -17z
m1119 -2 c21 -21 29 -64 33 -183 l3 -78 -26 0 c-15 0 -29 5 -31 10 -2 6 -19 4
-45 -6 -53 -21 -105 -12 -133 23 -47 59 -3 125 90 137 71 9 89 19 74 43 -7 11
-26 19 -52 21 -34 3 -43 -1 -57 -21 -11 -18 -22 -23 -40 -19 -34 6 -31 28 6
63 28 26 38 29 95 29 50 0 68 -4 83 -19z m140 -43 c12 -35 27 -80 35 -101 l13
-38 16 43 c9 24 26 69 37 101 18 48 25 57 46 57 13 0 24 -6 24 -12 0 -7 -21
-70 -47 -140 -45 -122 -49 -128 -75 -128 -16 0 -28 1 -28 3 0 1 -22 61 -50
132 -27 71 -50 133 -50 137 0 4 13 8 29 8 27 0 31 -5 50 -62z m390 47 c33 -16
61 -69 61 -114 l0 -31 -100 0 c-55 0 -100 -2 -100 -5 0 -19 33 -65 51 -70 30
-10 67 2 79 25 7 13 21 20 40 20 36 0 36 -3 9 -46 -34 -55 -129 -69 -188 -28
-69 48 -66 187 4 242 33 26 102 29 144 7z m448 0 c25 -18 31 -44 36 -172 l3
-93 -27 0 c-15 0 -29 5 -31 10 -2 7 -17 5 -43 -6 -90 -37 -175 21 -145 100 12
32 53 53 119 62 30 4 55 13 58 21 9 23 -17 43 -58 43 -29 0 -42 -6 -54 -24
-11 -17 -22 -22 -40 -18 -14 2 -25 7 -25 11 1 17 30 55 51 67 33 18 129 18
156 -1z m143 -2 c0 -15 1 -15 18 0 19 17 85 23 117 11 33 -13 45 -59 45 -169
l0 -105 -30 0 -30 0 0 103 c0 111 -6 127 -49 127 -50 0 -56 -12 -61 -122 l-5
-103 -27 -3 -28 -3 0 140 0 141 25 0 c17 0 25 -6 25 -17z m585 -8 c23 -22 25
-32 25 -117 0 -51 3 -103 6 -115 5 -19 2 -23 -18 -23 -13 0 -29 5 -34 10 -7 7
-20 6 -40 -5 -35 -18 -60 -19 -103 -4 -53 19 -69 85 -31 127 21 23 35 28 110
40 32 5 46 13 48 26 5 24 -14 36 -60 36 -27 0 -40 -5 -48 -20 -7 -13 -21 -20
-40 -20 -28 0 -29 1 -18 30 14 41 51 59 121 60 48 0 62 -4 82 -25z m271 7 c33
-26 49 -63 33 -73 -24 -15 -44 -10 -54 14 -15 33 -77 36 -99 5 -25 -35 -21
-122 6 -148 38 -35 82 -21 101 33 5 14 13 17 29 11 33 -10 33 -11 15 -50 -34
-70 -133 -83 -191 -25 -26 26 -31 39 -34 93 -4 73 17 125 58 145 37 18 111 16
136 -5z m260 0 c33 -26 49 -63 33 -73 -24 -15 -44 -10 -54 14 -15 33 -77 36
-99 5 -25 -35 -21 -122 6 -148 38 -35 82 -21 101 33 5 14 13 17 29 11 33 -10
33 -11 15 -50 -34 -70 -133 -83 -191 -25 -26 26 -31 39 -34 93 -4 73 17 125
58 145 37 18 111 16 136 -5z m273 -7 c74 -63 61 -209 -23 -249 -43 -20 -79
-20 -120 -1 -44 21 -67 64 -67 128 -2 96 43 147 128 147 41 0 58 -5 82 -25z
m149 -85 c2 -84 6 -107 19 -117 22 -17 45 -16 69 1 16 12 20 30 24 118 l5 103
28 3 27 3 0 -140 0 -141 -25 0 c-14 0 -25 4 -25 10 0 5 -15 2 -34 -6 -41 -20
-95 -12 -122 17 -16 18 -20 40 -22 141 l-4 119 29 -3 28 -3 3 -105z m282 93
c0 -15 1 -15 18 0 19 17 85 23 117 11 33 -13 45 -59 45 -169 l0 -105 -30 0
-30 0 0 103 c0 111 -6 127 -49 127 -50 0 -56 -12 -61 -122 l-5 -103 -27 -3
-28 -3 0 140 0 141 25 0 c17 0 25 -6 25 -17z m530 -233 c0 -27 -3 -30 -30 -30
-27 0 -30 3 -30 30 0 27 3 30 30 30 27 0 30 -3 30 -30z m-292 -948 c114 -36
208 -124 254 -239 20 -51 22 -75 22 -203 0 -128 -2 -152 -22 -203 -45 -110
-133 -195 -246 -234 -48 -17 -163 -18 -2331 -18 l-2280 0 -58 23 c-115 47
-203 140 -239 254 -26 86 -25 272 2 359 36 117 140 222 255 259 58 18 118 19
2322 19 2172 1 2264 0 2321 -17z"/>
<path d="M19050 14431 l0 -141 49 0 c65 0 109 17 125 49 33 66 26 155 -16 198
-18 18 -39 25 -91 30 l-67 6 0 -142z"/>
<path d="M19426 14448 c-23 -38 -28 -65 -17 -106 19 -69 95 -83 126 -22 36 70
4 150 -60 150 -25 0 -39 -6 -49 -22z"/>
<path d="M20726 14357 c-56 -14 -77 -37 -57 -61 32 -38 121 2 121 54 0 23 3
22 -64 7z"/>
<path d="M21244 14462 c-6 -4 -16 -17 -23 -29 -12 -23 -11 -23 59 -23 38 0 70
3 70 8 0 4 -7 18 -16 30 -15 22 -66 30 -90 14z"/>
<path d="M21710 14358 c-53 -11 -74 -32 -59 -59 22 -43 119 -5 119 47 0 13 -3
24 -7 23 -5 -1 -28 -5 -53 -11z"/>
<path d="M22460 14362 c-61 -7 -90 -23 -90 -48 0 -43 88 -46 110 -3 18 32 9
54 -20 51z"/>
<path d="M23196 14448 c-23 -38 -28 -65 -17 -106 19 -69 95 -83 126 -22 36 70
4 150 -60 150 -25 0 -39 -6 -49 -22z"/>
<path d="M19385 13286 c-108 -34 -186 -102 -232 -201 -27 -57 -28 -67 -28
-205 0 -142 1 -146 31 -210 39 -81 96 -140 171 -176 l58 -29 2295 0 2295 0 58
29 c75 36 137 98 173 173 28 56 29 63 29 213 0 150 -1 157 -29 213 -36 75 -95
132 -176 171 l-65 31 -2270 2 c-1814 1 -2278 -1 -2310 -11z m1859 -322 c22
-22 20 -44 -4 -44 -11 0 -20 5 -20 10 0 6 -11 10 -25 10 -39 0 -30 -17 17 -32
83 -26 71 -110 -16 -110 -41 0 -61 13 -69 42 -4 16 0 20 19 20 13 0 24 -4 24
-9 0 -13 27 -21 45 -15 25 10 17 19 -35 41 -41 18 -50 26 -50 47 0 47 79 75
114 40z m106 -74 c0 -83 -1 -90 -20 -90 -19 0 -20 7 -20 90 0 83 1 90 20 90
19 0 20 -7 20 -90z m178 74 c12 -8 22 -22 22 -30 0 -16 -36 -19 -45 -4 -3 6
-17 10 -31 10 -31 0 -48 -38 -34 -75 12 -32 32 -40 62 -23 l23 13 -22 3 c-15
2 -23 10 -23 23 0 16 7 19 40 19 40 0 40 0 40 -40 0 -46 -18 -60 -78 -60 -53
0 -82 25 -89 77 -5 37 -2 46 25 73 34 34 74 39 110 14z m145 -36 l32 -52 3 53
c3 43 6 52 20 49 14 -3 17 -18 20 -91 3 -85 2 -87 -20 -87 -17 0 -32 14 -55
53 l-32 52 -1 -52 c0 -46 -3 -53 -20 -53 -18 0 -20 7 -20 83 0 46 3 87 7 90
16 17 36 3 66 -45z m255 -20 c2 -51 7 -68 20 -73 26 -10 42 23 42 88 0 50 2
58 18 55 14 -3 18 -16 20 -69 4 -83 -14 -111 -72 -111 -53 0 -69 20 -74 91 -5
71 1 94 25 89 15 -3 19 -16 21 -70z m273 51 c27 -43 -6 -99 -58 -99 -19 0 -23
-5 -23 -30 0 -23 -4 -30 -20 -30 -19 0 -20 7 -20 91 l0 91 56 -4 c33 -3 60
-11 65 -19z"/>
<path d="M22120 12920 c0 -16 5 -21 23 -18 12 2 22 10 22 18 0 8 -10 16 -22
18 -18 3 -23 -2 -23 -18z"/>
<path d="M12950 17359 c-78 -15 -129 -68 -137 -140 -9 -87 55 -141 210 -180
128 -31 171 -76 137 -140 -27 -49 -151 -70 -217 -36 -37 20 -73 63 -73 88 0
16 -8 19 -41 19 l-41 0 7 -37 c18 -102 99 -157 230 -158 140 0 219 61 219 171
0 94 -48 134 -219 178 -104 27 -135 48 -135 90 0 71 140 109 217 59 12 -8 28
-30 35 -49 11 -31 16 -34 50 -34 33 0 38 3 38 23 0 12 -10 40 -23 62 -38 69
-151 106 -257 84z"/>
<path d="M13340 17315 c0 -45 0 -45 35 -45 35 0 35 0 35 45 0 45 0 45 -35 45
-35 0 -35 0 -35 -45z"/>
<path d="M14650 17070 l0 -290 40 0 40 0 0 290 0 290 -40 0 -40 0 0 -290z"/>
<path d="M13607 17196 c-52 -19 -67 -34 -93 -91 -53 -112 -16 -256 76 -302 55
-28 104 -29 153 -3 l37 20 0 -41 c0 -61 -41 -99 -107 -99 -50 0 -93 21 -93 44
0 14 -29 26 -63 26 -16 0 -18 -5 -12 -32 24 -115 221 -144 312 -46 34 36 42
98 43 321 l0 207 -35 0 c-29 0 -35 -4 -35 -21 0 -20 0 -20 -31 2 -38 27 -102
34 -152 15z m109 -61 c50 -20 79 -88 71 -164 -7 -65 -31 -101 -80 -119 -30
-12 -39 -12 -70 3 -47 22 -67 66 -67 148 0 56 4 70 27 97 23 28 53 48 76 49 4
1 23 -6 43 -14z"/>
<path d="M14084 17191 c-23 -10 -44 -25 -47 -32 -3 -8 -6 -2 -6 14 -1 24 -5
27 -36 27 l-35 0 0 -210 0 -210 35 0 35 0 1 108 c0 149 10 201 43 229 29 24
83 31 116 13 30 -16 40 -67 40 -211 l0 -139 35 0 35 0 0 168 c0 113 -4 175
-13 191 -32 63 -127 88 -203 52z"/>
<path d="M14974 17191 c-23 -10 -44 -25 -47 -32 -3 -8 -6 -2 -6 14 -1 24 -5
27 -36 27 l-35 0 0 -210 0 -210 35 0 35 0 1 108 c0 149 10 201 43 229 29 24
83 31 116 13 30 -16 40 -67 40 -211 l0 -139 35 0 35 0 0 168 c0 113 -4 175
-13 191 -32 63 -127 88 -203 52z"/>
<path d="M13340 16990 l0 -210 35 0 35 0 0 210 0 210 -35 0 -35 0 0 -210z"/>
<path d="M11590 15555 l0 -115 80 0 c64 0 80 3 80 15 0 12 -14 15 -70 15 l-70
0 0 40 0 40 65 0 c37 0 65 4 65 10 0 6 -29 10 -66 10 l-65 0 3 38 3 37 68 3
c94 4 84 22 -13 22 l-80 0 0 -115z"/>
<path d="M12250 15655 c0 -8 5 -15 10 -15 6 0 10 7 10 15 0 8 -4 15 -10 15 -5
0 -10 -7 -10 -15z"/>
<path d="M12320 15555 c0 -96 3 -115 15 -115 12 0 15 19 15 115 0 96 -3 115
-15 115 -12 0 -15 -19 -15 -115z"/>
<path d="M11800 15525 c0 -97 15 -115 22 -25 5 70 27 102 56 84 13 -8 18 -28
20 -78 3 -75 22 -91 22 -18 0 64 9 90 32 97 34 11 48 -12 48 -81 0 -36 4 -64
10 -64 15 0 13 143 -2 158 -15 15 -51 15 -65 1 -9 -9 -19 -9 -42 0 -23 10 -34
10 -52 0 -17 -9 -24 -9 -27 0 -2 6 -8 11 -13 11 -5 0 -9 -38 -9 -85z"/>
<path d="M12093 15600 c-13 -5 -23 -16 -23 -25 0 -19 14 -19 30 1 19 22 64 14
68 -12 3 -18 -4 -22 -39 -28 -52 -8 -69 -21 -69 -52 0 -35 41 -52 83 -36 21 8
33 9 35 2 2 -5 9 -10 15 -10 19 0 6 148 -13 160 -19 12 -58 12 -87 0z m66
-126 c-18 -22 -63 -14 -67 12 -3 18 4 23 35 31 33 8 38 7 41 -10 2 -10 -2 -25
-9 -33z"/>
<path d="M12250 15525 c0 -50 4 -85 10 -85 6 0 10 35 10 85 0 50 -4 85 -10 85
-6 0 -10 -35 -10 -85z"/>
<path d="M11590 13835 c0 -70 4 -115 10 -115 6 0 10 23 10 50 l0 50 53 0 c60
0 83 13 92 52 5 21 1 33 -19 52 -21 22 -34 26 -86 26 l-60 0 0 -115z m118 79
c48 -33 17 -74 -57 -74 -41 0 -41 0 -41 38 0 21 3 42 7 45 12 13 68 7 91 -9z"/>
<path d="M12940 13916 c0 -35 -13 -55 -25 -36 -12 19 -53 10 -74 -16 -29 -37
-27 -89 4 -119 26 -27 46 -31 76 -15 13 7 19 7 19 0 0 -5 5 -10 10 -10 6 0 10
45 10 115 0 70 -4 115 -10 115 -5 0 -10 -15 -10 -34z m-11 -78 c27 -48 -16
-117 -56 -92 -22 13 -30 89 -12 110 18 22 51 13 68 -18z"/>
<path d="M11819 13871 c-13 -11 -21 -23 -17 -27 5 -4 16 0 26 9 23 21 56 22
72 2 17 -20 6 -31 -39 -39 -63 -10 -89 -47 -55 -80 18 -19 47 -20 77 -5 16 9
22 9 25 0 2 -6 9 -11 16 -11 19 0 8 142 -12 158 -23 18 -66 15 -93 -7z m91
-79 c0 -21 -34 -52 -56 -52 -32 0 -43 28 -19 46 20 15 75 19 75 6z"/>
<path d="M11989 13869 c-18 -18 -19 -23 -6 -42 8 -12 29 -25 48 -30 45 -11 55
-22 39 -42 -16 -19 -59 -20 -66 0 -7 16 -34 21 -34 6 0 -14 41 -41 62 -41 37
0 68 23 68 50 0 28 -13 37 -78 55 -14 4 -22 13 -20 23 4 23 42 27 61 7 11 -11
18 -12 23 -4 9 15 -23 39 -53 39 -13 0 -32 -9 -44 -21z"/>
<path d="M12156 13877 c-32 -24 -17 -59 34 -78 47 -17 61 -36 39 -50 -21 -13
-46 -11 -63 7 -9 8 -21 14 -28 12 -21 -7 30 -48 60 -48 42 0 64 21 60 55 -2
24 -9 31 -40 40 -43 12 -63 29 -54 44 11 17 54 13 65 -6 7 -14 13 -15 21 -7 9
9 6 16 -11 28 -28 19 -59 21 -83 3z"/>
<path d="M12295 13858 c15 -66 42 -133 55 -133 8 0 19 20 25 45 20 76 22 77
40 13 10 -35 23 -63 30 -63 10 0 68 160 60 168 -10 10 -23 -11 -35 -55 -18
-67 -27 -72 -40 -22 -19 76 -21 80 -33 76 -7 -2 -19 -29 -27 -60 -8 -31 -17
-57 -20 -57 -4 0 -14 27 -23 60 -18 62 -44 87 -32 28z"/>
<path d="M12555 13865 c-50 -49 -17 -145 50 -145 38 0 75 42 75 85 0 43 -37
85 -75 85 -14 0 -37 -11 -50 -25z m86 -11 c7 -9 13 -31 13 -49 0 -18 -6 -40
-13 -49 -16 -19 -52 -21 -69 -4 -15 15 -16 72 -2 99 13 23 53 25 71 3z"/>
<path d="M12720 13805 c0 -50 4 -85 10 -85 6 0 10 19 11 43 2 64 12 92 37 95
12 2 22 10 22 18 0 17 -31 19 -48 2 -9 -9 -12 -9 -12 0 0 7 -4 12 -10 12 -6 0
-10 -35 -10 -85z"/>
<path d="M14039 12648 c-33 -11 -58 -58 -31 -58 9 0 23 9 30 20 14 22 42 26
60 8 18 -18 15 -39 -12 -67 -32 -34 -43 -71 -22 -71 9 0 16 4 16 10 0 5 14 25
30 43 29 34 38 70 22 95 -12 19 -64 30 -93 20z"/>
<path d="M11590 12535 c0 -96 3 -115 15 -115 12 0 15 13 15 55 l0 55 50 0 c28
0 50 5 50 10 0 6 -22 10 -50 10 l-50 0 0 35 0 35 60 0 c47 0 60 3 60 15 0 12
-15 15 -75 15 l-75 0 0 -115z"/>
<path d="M12600 12535 c0 -96 3 -115 15 -115 11 0 15 12 15 45 0 42 2 45 28
45 56 0 100 19 110 48 11 33 0 67 -27 81 -11 6 -47 11 -80 11 l-61 0 0 -115z
m124 79 c22 -9 20 -51 -3 -64 -11 -5 -36 -10 -55 -10 -35 0 -36 1 -36 40 0 40
0 40 39 40 22 0 46 -3 55 -6z"/>
<path d="M13930 12616 c0 -34 0 -34 -38 -29 -34 4 -42 1 -60 -22 -28 -35 -28
-85 -2 -118 18 -23 28 -26 75 -25 l55 2 0 113 c0 94 -3 113 -15 113 -10 0 -15
-10 -15 -34z m-20 -66 c11 -11 20 -30 20 -43 0 -28 -26 -67 -45 -67 -18 0 -45
39 -45 65 0 23 26 65 41 65 5 0 18 -9 29 -20z"/>
<path d="M12427 12633 c-4 -3 -7 -14 -7 -24 0 -9 -6 -19 -12 -22 -10 -4 -10
-7 0 -18 6 -7 12 -36 12 -65 0 -29 3 -59 6 -68 8 -21 54 -21 54 -1 0 8 -7 15
-15 15 -12 0 -15 13 -15 55 0 40 4 57 15 61 8 4 15 10 15 15 0 5 -7 9 -15 9
-9 0 -15 9 -15 25 0 24 -10 32 -23 18z"/>
<path d="M11790 12570 c-14 -14 -20 -33 -20 -65 0 -57 25 -85 75 -85 49 0 75
29 75 83 0 33 -6 49 -23 65 -30 28 -80 29 -107 2z m78 -16 c27 -18 30 -69 5
-96 -32 -35 -73 -9 -73 47 0 30 21 65 38 65 4 0 18 -7 30 -16z"/>
<path d="M11950 12504 c0 -68 3 -84 15 -84 11 0 15 12 15 51 0 60 13 89 40 89
11 0 20 7 20 15 0 10 -12 14 -45 13 l-45 -1 0 -83z"/>
<path d="M12070 12563 c-48 -61 -5 -152 66 -139 37 7 39 5 24 -25 -13 -23 -47
-25 -72 -2 -20 18 -34 12 -24 -12 8 -23 54 -37 85 -27 39 13 51 47 51 143 l0
85 -55 2 c-47 1 -57 -2 -75 -25z m80 -13 c35 -35 19 -100 -25 -100 -42 0 -61
66 -28 102 21 23 28 23 53 -2z"/>
<path d="M12250 12568 c-13 -15 -20 -35 -20 -63 0 -54 28 -85 75 -85 50 0 75
29 75 85 0 32 -6 51 -20 65 -27 27 -83 27 -110 -2z m82 -15 c33 -30 15 -113
-24 -113 -46 0 -65 87 -26 114 28 20 27 20 50 -1z"/>
<path d="M12818 12568 c-20 -20 -21 -23 -5 -26 9 -2 24 4 33 12 17 18 32 20
53 7 22 -14 5 -41 -26 -41 -57 0 -94 -55 -61 -88 15 -15 63 -16 89 -2 13 7 19
7 19 0 0 -5 6 -10 14 -10 10 0 12 15 8 73 -2 39 -9 78 -14 85 -17 21 -85 15
-110 -10z m92 -88 c0 -24 -34 -43 -61 -35 -27 9 -20 37 11 46 42 12 50 10 50
-11z"/>
<path d="M12992 12578 c-16 -16 -15 -53 1 -67 8 -6 28 -14 46 -17 36 -8 52
-31 30 -45 -22 -14 -37 -11 -58 13 -19 20 -21 20 -27 3 -9 -23 20 -45 61 -45
45 0 67 20 63 55 -2 25 -10 32 -47 45 -24 8 -46 20 -48 26 -7 20 29 25 54 8
28 -18 42 -11 27 14 -13 21 -84 28 -102 10z"/>
<path d="M13152 12578 c-16 -16 -15 -53 1 -67 8 -6 28 -14 46 -17 36 -8 52
-31 30 -45 -22 -14 -37 -11 -58 13 -19 20 -21 20 -27 3 -9 -23 20 -45 61 -45
45 0 67 20 63 55 -2 25 -10 32 -47 45 -24 8 -46 20 -48 26 -7 20 29 25 54 8
28 -18 42 -11 27 14 -13 21 -84 28 -102 10z"/>
<path d="M13290 12579 c0 -6 10 -44 23 -85 28 -94 50 -100 68 -19 14 63 20 61
39 -8 17 -62 37 -59 60 9 29 84 34 114 18 114 -9 0 -19 -20 -27 -50 -7 -27
-16 -52 -20 -55 -5 -2 -14 20 -21 50 -18 76 -42 75 -59 0 -7 -30 -16 -55 -20
-55 -4 0 -13 25 -20 55 -8 35 -18 55 -27 55 -8 0 -14 -5 -14 -11z"/>
<path d="M13550 12568 c-13 -15 -20 -35 -20 -63 0 -54 28 -85 75 -85 50 0 75
29 75 85 0 32 -6 51 -20 65 -27 27 -83 27 -110 -2z m82 -15 c33 -30 15 -113
-24 -113 -46 0 -65 87 -26 114 28 20 27 20 50 -1z"/>
<path d="M13720 12503 c0 -49 4 -83 10 -83 6 0 10 19 11 43 2 64 12 92 37 95
41 6 26 31 -18 29 l-40 -1 0 -83z"/>
<path d="M14050 12435 c0 -8 7 -15 15 -15 8 0 15 7 15 15 0 8 -7 15 -15 15 -8
0 -15 -7 -15 -15z"/>
<path d="M11866 11709 c-62 -15 -153 -68 -197 -116 -22 -24 -55 -74 -72 -111
-32 -66 -32 -69 -32 -223 l0 -155 37 -76 c45 -91 103 -147 196 -191 l67 -32
2136 0 2135 0 76 37 c91 45 147 103 191 196 32 66 32 69 32 222 0 153 0 156
-32 222 -44 93 -100 151 -191 196 l-76 37 -2115 2 c-1255 0 -2132 -3 -2155 -8z
m1762 -427 l3 -72 39 0 c29 0 40 -4 40 -15 0 -12 -14 -15 -65 -15 l-65 0 0 83
c0 87 4 100 30 95 11 -3 16 -20 18 -76z m255 58 c34 -27 44 -78 23 -118 -17
-33 -34 -42 -77 -42 -44 0 -67 16 -77 54 -13 46 -4 83 26 106 32 26 72 25 105
0z m205 4 c12 -8 22 -22 22 -30 0 -16 -36 -19 -45 -4 -3 6 -17 10 -31 10 -31
0 -48 -38 -34 -75 12 -32 32 -40 62 -23 l23 13 -22 3 c-15 2 -23 10 -23 23 0
16 7 19 40 19 40 0 40 0 40 -40 0 -46 -18 -60 -78 -60 -53 0 -82 25 -89 77 -5
37 -2 46 25 73 34 34 74 39 110 14z m112 -74 c0 -83 -1 -90 -20 -90 -18 0 -20
7 -20 83 0 85 3 97 27 97 10 0 13 -22 13 -90z m121 38 l34 -53 3 53 c3 44 6
53 20 50 14 -3 17 -18 20 -91 3 -86 3 -87 -22 -87 -18 0 -31 12 -53 48 l-28
47 -3 -47 c-3 -40 -6 -48 -23 -48 -17 0 -19 7 -19 83 0 46 3 87 7 90 15 16 33
4 64 -45z"/>
<path d="M13802 11308 c-17 -17 -15 -64 4 -82 33 -33 64 -11 64 45 0 46 -38
67 -68 37z"/>
<path d="M13253 10292 c-190 -68 -261 -293 -146 -461 39 -57 120 -121 154
-121 16 0 19 8 19 43 0 42 0 42 -37 43 -26 0 -41 7 -54 25 -10 13 -28 36 -39
52 -19 23 -19 27 -5 27 9 0 29 -13 44 -29 37 -40 65 -47 90 -22 28 28 26 41
-4 41 -33 0 -82 25 -94 48 -20 38 -23 102 -7 127 9 13 16 43 16 65 0 48 16 58
57 38 36 -18 195 -16 240 3 40 16 46 11 48 -45 0 -24 7 -51 14 -60 9 -11 12
-33 9 -67 -7 -64 -37 -98 -96 -106 -41 -5 -52 -15 -32 -28 6 -3 10 -40 10 -81
0 -84 4 -87 69 -55 48 25 108 91 134 150 30 65 29 178 -2 247 -62 142 -241
218 -388 166z"/>
<path d="M14569 10297 c-142 -40 -229 -153 -229 -297 0 -203 198 -353 392
-296 123 35 197 130 206 264 l5 72 -147 0 -146 0 0 -50 0 -50 85 0 c47 0 85
-2 85 -5 0 -26 -36 -79 -69 -100 -48 -33 -137 -38 -187 -12 -108 56 -141 191
-73 292 47 70 159 99 233 61 l44 -22 43 38 c50 43 50 42 -41 86 -64 30 -136
37 -201 19z"/>
</g>
</svg>
