<?xml version="1.0" standalone="no"?>
<!DOCTYPE svg PUBLIC "-//W3C//DTD SVG 20010904//EN"
 "http://www.w3.org/TR/2001/REC-SVG-20010904/DTD/svg10.dtd">
<svg version="1.0" xmlns="http://www.w3.org/2000/svg"
 width="3746.000000pt" height="2720.000000pt" viewBox="0 0 3746.000000 2720.000000"
 preserveAspectRatio="xMidYMid meet">

<g transform="translate(0.000000,2720.000000) scale(0.100000,-0.100000)"
fill="#000000" stroke="none">
<path d="M1000 26290 l0 -430 43 0 c227 2 417 197 417 430 0 233 -190 428
-417 430 l-43 0 0 -430z"/>
<path d="M26045 26626 c-96 -30 -172 -96 -214 -186 -22 -47 -26 -69 -26 -150
0 -81 4 -103 26 -150 33 -70 99 -136 169 -169 l55 -26 885 0 885 0 55 26 c70
33 136 99 169 169 22 47 26 69 26 150 0 81 -4 103 -26 150 -33 70 -99 136
-169 169 l-55 26 -870 2 c-682 1 -879 -1 -910 -11z m575 -266 c0 -5 -20 -10
-45 -10 -43 0 -45 -1 -45 -30 0 -29 2 -30 45 -30 25 0 45 -4 45 -10 0 -5 -20
-10 -45 -10 -45 0 -45 0 -45 -35 0 -35 0 -35 45 -35 25 0 45 -4 45 -10 0 -6
-27 -10 -60 -10 l-60 0 0 95 0 95 60 0 c33 0 60 -4 60 -10z m710 -20 c0 -15 7
-20 25 -20 31 0 33 -17 3 -22 -18 -2 -24 -11 -26 -36 -4 -37 14 -66 35 -58 7
3 13 -1 13 -9 0 -10 -10 -15 -30 -15 -35 0 -50 23 -50 79 0 22 -6 42 -12 45
-10 5 -10 7 0 12 6 3 12 14 12 25 0 10 7 19 15 19 8 0 15 -9 15 -20z m-626
-42 l15 -23 20 23 c10 12 27 22 36 22 13 0 11 -7 -10 -35 l-27 -34 27 -36 c25
-32 26 -35 8 -35 -11 0 -26 12 -34 26 l-13 26 -23 -26 c-12 -14 -29 -26 -38
-26 -13 0 -10 7 10 35 l27 34 -21 30 c-25 34 -26 41 -7 41 7 0 21 -10 30 -22z
m146 10 c0 -9 3 -9 12 0 19 19 66 14 88 -8 42 -42 11 -120 -48 -120 -15 0 -33
5 -40 12 -9 9 -12 2 -12 -31 0 -30 -4 -41 -12 -39 -9 3 -14 35 -16 101 -2 82
0 97 13 97 8 0 15 -5 15 -12z m275 -8 c42 -46 10 -120 -52 -120 -65 0 -96 71
-53 118 27 29 80 29 105 2z m145 9 c0 -6 -9 -13 -21 -16 -23 -6 -39 -40 -39
-84 0 -16 -4 -29 -10 -29 -6 0 -10 29 -10 68 l0 68 40 1 c22 1 40 -3 40 -8z"/>
<path d="M26867 26282 c-10 -10 -17 -26 -17 -35 0 -19 26 -47 45 -47 20 0 45
28 45 50 0 21 -25 50 -44 50 -7 0 -20 -8 -29 -18z"/>
<path d="M27046 26284 c-9 -8 -16 -24 -16 -34 0 -22 26 -50 45 -50 8 0 22 11
31 25 15 23 15 27 0 50 -19 29 -38 32 -60 9z"/>
<path d="M35740 26221 c0 -11 -6 -22 -12 -25 -10 -5 -10 -7 0 -12 7 -3 12 -25
12 -53 0 -52 12 -71 47 -71 28 0 30 16 3 23 -16 4 -20 14 -20 51 0 39 3 46 20
46 11 0 20 5 20 10 0 6 -9 10 -20 10 -13 0 -20 7 -20 20 0 11 -7 20 -15 20 -8
0 -15 -9 -15 -19z"/>
<path d="M36090 26221 c0 -11 -6 -22 -12 -25 -10 -5 -10 -7 0 -12 6 -3 12 -23
12 -45 0 -53 15 -79 45 -79 31 0 42 18 13 22 -20 3 -23 10 -26 51 -3 42 -1 47
17 47 12 0 21 5 21 10 0 6 -9 10 -20 10 -13 0 -20 7 -20 20 0 11 -7 20 -15 20
-8 0 -15 -9 -15 -19z"/>
<path d="M35840 26180 c-41 -41 -12 -120 43 -120 29 0 64 24 49 34 -6 3 -13 2
-17 -4 -11 -18 -54 -11 -65 10 -10 19 -8 20 45 20 48 0 55 2 55 20 0 28 -35
60 -65 60 -14 0 -34 -9 -45 -20z m64 -6 c33 -13 17 -34 -24 -34 -38 0 -40 2
-30 20 11 21 27 25 54 14z"/>
<path d="M35976 26185 c-26 -27 -18 -44 32 -64 45 -19 43 -44 -3 -39 -22 2
-34 0 -32 -6 9 -26 81 -17 91 10 8 21 -17 50 -50 58 -34 9 -25 31 12 31 39 1
37 19 -2 23 -19 2 -38 -3 -48 -13z"/>
<path d="M34732 24298 c-6 -7 -13 -25 -17 -41 -4 -15 -11 -27 -16 -27 -5 0 -9
-7 -9 -15 0 -8 5 -15 10 -15 6 0 10 -30 10 -70 0 -68 1 -70 25 -70 24 0 25 2
25 70 l0 70 35 0 35 0 0 -70 c0 -63 2 -70 20 -70 17 0 19 8 22 68 3 61 5 67
26 70 27 4 30 32 3 32 -27 0 -34 15 -15 34 8 9 20 14 25 11 5 -4 9 3 9 14 0
16 -6 21 -28 21 -33 0 -62 -27 -62 -58 0 -18 -6 -22 -35 -22 -28 0 -35 4 -35
20 0 11 5 21 10 21 6 1 16 2 23 3 6 0 12 8 12 16 0 19 -58 26 -73 8z"/>
<path d="M31666 24279 c-31 -24 -35 -68 -8 -91 9 -9 34 -21 54 -27 45 -15 66
-37 50 -53 -11 -11 -33 -12 -91 -6 -33 4 -37 -16 -6 -30 70 -32 145 -2 145 58
0 32 -21 51 -80 71 -40 14 -51 26 -43 46 4 11 19 14 56 11 59 -4 74 14 26 31
-47 16 -73 14 -103 -10z"/>
<path d="M32600 24180 c0 -113 1 -120 20 -120 19 0 20 7 20 120 0 113 -1 120
-20 120 -19 0 -20 -7 -20 -120z"/>
<path d="M34223 24288 c-28 -14 -43 -56 -30 -85 6 -13 29 -28 61 -40 83 -30
69 -87 -16 -62 -50 14 -68 -9 -23 -29 84 -39 179 27 133 91 -7 10 -35 25 -63
35 -37 13 -50 23 -50 37 0 17 7 20 54 20 62 0 78 17 30 34 -39 13 -67 13 -96
-1z"/>
<path d="M33510 24255 c0 -20 -5 -25 -26 -25 -14 0 -34 -5 -45 -10 -13 -7 -19
-7 -19 0 0 5 -9 10 -20 10 -18 0 -20 -7 -20 -85 0 -84 0 -85 25 -85 24 0 25 3
25 59 0 65 0 66 46 75 l31 7 5 -55 c6 -67 20 -86 64 -86 28 0 34 4 34 20 0 12
-6 20 -12 19 -33 -4 -38 2 -38 51 0 47 2 50 25 50 16 0 25 6 25 15 0 9 -9 15
-25 15 -20 0 -25 5 -25 25 0 20 -5 25 -25 25 -20 0 -25 -5 -25 -25z"/>
<path d="M34010 24255 c0 -16 -6 -25 -15 -25 -8 0 -15 -7 -15 -15 0 -8 7 -15
15 -15 11 0 15 -13 15 -53 0 -68 15 -90 60 -85 24 2 36 9 38 21 3 13 -1 18
-15 16 -31 -6 -43 10 -43 57 0 40 2 44 25 44 16 0 25 6 25 15 0 9 -9 15 -25
15 -20 0 -25 5 -25 25 0 18 -5 25 -20 25 -15 0 -20 -7 -20 -25z"/>
<path d="M34390 24255 c0 -14 -4 -25 -10 -25 -5 0 -10 -7 -10 -15 0 -8 4 -15
9 -15 5 0 11 -24 13 -54 6 -67 20 -86 64 -86 28 0 34 4 34 20 0 12 -6 20 -12
19 -33 -4 -38 2 -38 51 0 47 2 50 25 50 16 0 25 6 25 15 0 9 -9 15 -25 15 -20
0 -25 5 -25 25 0 20 -5 25 -25 25 -20 0 -25 -5 -25 -25z"/>
<path d="M31863 24215 c-42 -30 -39 -108 6 -142 28 -22 89 -16 116 12 34 33
34 93 2 123 -28 26 -92 30 -124 7z m91 -31 c22 -22 20 -60 -5 -77 -52 -37 -97
28 -56 81 13 17 42 15 61 -4z"/>
<path d="M32040 24144 c0 -77 2 -84 20 -84 18 0 20 7 20 59 0 66 18 93 48 74
12 -7 18 -27 20 -72 3 -53 6 -61 22 -61 18 0 20 7 20 59 0 64 15 87 50 76 17
-6 20 -15 20 -71 0 -62 1 -64 25 -64 23 0 25 3 25 49 0 53 -14 101 -33 113
-18 12 -72 9 -85 -4 -8 -8 -15 -8 -25 0 -7 6 -39 11 -70 11 l-57 -1 0 -84z"/>
<path d="M32351 24204 c-65 -82 33 -187 118 -128 20 15 21 18 7 26 -10 5 -23
5 -36 -2 -24 -13 -56 -5 -64 15 -4 12 7 15 61 15 l66 0 -7 33 c-8 43 -39 67
-86 67 -30 0 -43 -6 -59 -26z m97 -26 c3 -15 -4 -18 -38 -18 -38 0 -40 1 -30
21 14 25 63 23 68 -3z"/>
<path d="M32680 24144 c0 -77 2 -84 20 -84 18 0 20 7 20 59 0 66 18 93 48 74
12 -7 18 -27 20 -72 3 -53 6 -61 22 -61 17 0 20 7 20 51 0 59 13 89 40 89 27
0 40 -30 40 -89 0 -44 3 -51 20 -51 18 0 20 7 20 63 0 81 -17 107 -70 107 -21
0 -42 -5 -45 -10 -5 -7 -11 -8 -19 -1 -6 5 -40 10 -74 9 l-62 -1 0 -83z"/>
<path d="M32980 24110 c0 -113 1 -120 20 -120 17 0 20 7 20 45 0 42 2 45 19
35 82 -43 159 59 100 134 -15 20 -29 26 -58 26 -20 0 -42 -5 -49 -12 -9 -9
-12 -9 -12 0 0 7 -9 12 -20 12 -19 0 -20 -7 -20 -120z m125 70 c35 -38 -9
-104 -54 -80 -28 15 -35 47 -17 75 20 30 47 32 71 5z"/>
<path d="M33205 24205 c-56 -56 -16 -145 65 -145 31 0 47 6 65 26 55 59 16
144 -65 144 -30 0 -47 -6 -65 -25z m101 -30 c18 -28 11 -60 -17 -75 -45 -24
-89 42 -54 80 24 27 51 25 71 -5z"/>
<path d="M33641 24221 c-23 -15 -3 -30 33 -24 28 4 36 1 45 -16 11 -20 9 -21
-24 -21 -51 0 -75 -15 -75 -48 0 -16 5 -33 12 -40 15 -15 53 -16 79 -2 13 7
19 7 19 0 0 -5 9 -10 20 -10 18 0 20 7 20 63 0 83 -17 107 -73 107 -23 0 -48
-4 -56 -9z m78 -112 c-11 -21 -44 -25 -55 -7 -10 15 22 37 46 31 16 -4 18 -9
9 -24z"/>
<path d="M33800 24145 c0 -78 2 -85 20 -85 17 0 20 7 20 53 0 66 17 92 53 83
26 -6 27 -9 27 -71 0 -63 1 -65 25 -65 24 0 25 3 25 58 0 79 -16 106 -63 110
-21 2 -45 -2 -53 -9 -10 -8 -14 -8 -14 0 0 6 -9 11 -20 11 -18 0 -20 -7 -20
-85z"/>
<path d="M34510 24162 c0 -54 4 -72 18 -85 21 -19 54 -22 83 -7 13 7 19 7 19
0 0 -5 9 -10 20 -10 18 0 20 7 20 85 0 78 -2 85 -20 85 -17 0 -20 -7 -20 -42
0 -81 -20 -109 -61 -88 -15 9 -19 22 -19 70 0 53 -2 60 -20 60 -18 0 -20 -7
-20 -68z"/>
<path d="M32730 23730 c0 -5 5 -10 10 -10 6 0 10 5 10 10 0 6 -4 10 -10 10 -5
0 -10 -4 -10 -10z"/>
<path d="M33170 23730 c0 -5 5 -10 10 -10 6 0 10 5 10 10 0 6 -4 10 -10 10 -5
0 -10 -4 -10 -10z"/>
<path d="M33520 23704 c0 -31 -3 -35 -17 -28 -29 12 -66 7 -80 -12 -37 -51 9
-120 64 -95 21 10 28 9 34 -1 5 -7 9 27 9 80 0 50 -2 92 -5 92 -3 0 -5 -16 -5
-36z m-9 -55 c16 -30 -3 -69 -34 -69 -29 0 -47 17 -47 45 0 45 60 63 81 24z"/>
<path d="M33910 23730 c0 -5 5 -10 10 -10 6 0 10 5 10 10 0 6 -4 10 -10 10 -5
0 -10 -4 -10 -10z"/>
<path d="M33960 23650 c0 -53 4 -90 10 -90 6 0 10 37 10 90 0 53 -4 90 -10 90
-6 0 -10 -37 -10 -90z"/>
<path d="M32550 23727 c0 -13 71 -162 78 -165 8 -2 22 24 69 136 8 20 9 32 3
32 -6 0 -13 -8 -17 -17 -3 -10 -17 -43 -30 -73 l-24 -55 -31 73 c-17 39 -35
72 -39 72 -5 0 -9 -1 -9 -3z"/>
<path d="M33703 23695 c-6 -14 -7 -25 -2 -25 5 0 9 -23 9 -50 0 -54 14 -69 48
-55 15 7 15 9 -3 13 -26 6 -35 20 -35 60 0 28 3 32 28 33 26 1 26 1 3 8 -13 3
-27 14 -30 23 -5 14 -8 13 -18 -7z"/>
<path d="M32807 23683 c-18 -5 -37 -40 -37 -69 0 -20 36 -54 58 -54 10 0 27 7
38 16 19 16 13 16 -30 -2 -14 -5 -46 20 -46 37 0 5 23 9 50 9 52 0 62 11 38
42 -15 19 -45 27 -71 21z m53 -17 c0 -2 3 -11 6 -20 5 -13 -2 -16 -35 -16 -42
0 -50 7 -29 28 11 11 58 17 58 8z"/>
<path d="M33261 23681 c-8 -5 -20 -7 -28 -4 -10 4 -13 -9 -13 -56 0 -75 18
-81 22 -8 3 50 4 52 33 52 29 0 30 -2 33 -52 4 -70 22 -68 22 2 0 43 -4 56
-19 65 -24 12 -32 12 -50 1z"/>
<path d="M33593 23680 c-43 -17 -44 -85 -1 -109 21 -12 31 -13 53 -3 33 15 28
26 -7 13 -28 -10 -58 2 -58 24 0 11 13 15 49 15 44 0 49 2 44 20 -5 19 -40 51
-53 49 -3 0 -15 -4 -27 -9z m55 -22 c21 -21 13 -28 -28 -28 -43 0 -43 0 -34
24 7 19 45 21 62 4z"/>
<path d="M33808 23683 c-30 -7 -20 -20 11 -15 22 3 32 -1 40 -17 11 -19 9 -21
-22 -21 -42 0 -66 -24 -50 -48 5 -10 19 -18 29 -20 19 -3 19 -2 0 12 -24 20
-14 46 19 46 27 0 33 -18 13 -39 -11 -11 -10 -12 1 -6 8 4 17 2 22 -6 6 -9 9
7 9 43 0 47 -4 59 -19 68 -20 10 -25 11 -53 3z"/>
<path d="M32730 23620 c0 -33 4 -60 10 -60 6 0 10 27 10 60 0 33 -4 60 -10 60
-6 0 -10 -27 -10 -60z"/>
<path d="M32902 23672 c2 -4 12 -31 23 -60 10 -29 23 -51 29 -49 5 2 17 25 27
53 l17 49 14 -35 c8 -19 18 -43 21 -52 11 -31 22 -20 45 42 25 70 12 82 -14
13 l-18 -47 -19 47 c-11 26 -23 47 -27 47 -4 0 -16 -21 -27 -47 l-19 -48 -19
48 c-10 26 -22 47 -27 47 -5 0 -8 -4 -6 -8z"/>
<path d="M33173 23620 c0 -36 2 -50 4 -32 2 17 2 47 0 65 -2 17 -4 3 -4 -33z"/>
<path d="M33910 23620 c0 -33 4 -60 10 -60 6 0 10 27 10 60 0 33 -4 60 -10 60
-6 0 -10 -27 -10 -60z"/>
<path d="M23850 22295 l0 -95 55 0 c79 0 115 39 81 85 -10 14 -11 25 -3 42 17
38 -14 63 -80 63 l-53 0 0 -95z m105 45 c0 -22 -5 -25 -37 -28 -36 -3 -38 -2
-38 28 0 30 2 31 38 28 32 -3 37 -6 37 -28z m6 -66 c20 -24 -1 -48 -45 -52
-35 -3 -36 -2 -36 32 0 34 2 36 34 36 18 0 39 -7 47 -16z"/>
<path d="M24030 22375 c0 -8 5 -15 10 -15 6 0 10 7 10 15 0 8 -4 15 -10 15 -5
0 -10 -7 -10 -15z"/>
<path d="M24450 22375 c0 -8 5 -15 10 -15 6 0 10 7 10 15 0 8 -4 15 -10 15 -5
0 -10 -7 -10 -15z"/>
<path d="M25474 22379 c-3 -6 14 -32 40 -57 l46 -47 47 47 c37 38 45 50 35 60
-9 9 -19 5 -47 -22 l-35 -34 -33 32 c-36 35 -42 38 -53 21z"/>
<path d="M26246 22381 c-8 -13 -66 -165 -66 -173 0 -20 22 -5 31 22 10 27 16
30 50 30 35 0 41 -3 50 -30 6 -16 18 -30 26 -30 8 0 13 6 10 13 -3 6 -20 49
-38 95 -29 74 -49 97 -63 73z m43 -93 c1 -5 -12 -8 -29 -8 -19 0 -28 4 -25 13
2 6 10 26 16 42 l11 30 13 -35 c8 -19 14 -38 14 -42z"/>
<path d="M26370 22331 c0 -62 13 -110 33 -123 7 -4 28 -8 48 -8 55 0 69 22 69
113 0 45 -4 77 -10 77 -6 0 -10 -30 -10 -69 0 -76 -13 -101 -54 -101 -37 0
-46 19 -46 97 0 58 -3 73 -15 73 -12 0 -15 -13 -15 -59z"/>
<path d="M26570 22295 l0 -95 50 0 c69 0 100 30 100 95 0 65 -31 95 -100 95
l-50 0 0 -95z m100 65 c24 -13 34 -59 20 -96 -14 -36 -26 -44 -67 -44 l-33 0
0 75 0 75 31 0 c17 0 39 -4 49 -10z"/>
<path d="M27814 22379 c-3 -6 14 -32 40 -57 l46 -47 47 47 c37 38 45 50 35 60
-9 9 -19 5 -47 -22 l-35 -34 -33 32 c-36 35 -42 38 -53 21z"/>
<path d="M24091 22358 c-5 -13 -7 -39 -4 -58 10 -91 14 -100 33 -100 11 0 20
5 20 10 0 6 -4 10 -10 10 -15 0 -12 97 3 104 10 5 10 7 0 12 -7 3 -13 14 -13
25 0 26 -19 24 -29 -3z"/>
<path d="M24030 22270 c0 -40 4 -70 10 -70 6 0 10 30 10 70 0 40 -4 70 -10 70
-6 0 -10 -30 -10 -70z"/>
<path d="M24177 22322 c-22 -24 -22 -86 -1 -107 21 -20 73 -16 88 7 5 9 7 21
2 25 -4 4 -12 0 -17 -10 -21 -36 -69 -13 -69 33 0 45 50 71 64 33 5 -12 10
-13 18 -5 8 8 8 15 -2 27 -17 21 -63 19 -83 -3z"/>
<path d="M24310 22320 c-43 -43 -14 -120 45 -120 45 0 70 35 61 85 -11 55 -67
74 -106 35z m69 -14 c7 -8 11 -30 9 -48 -2 -28 -7 -34 -30 -36 -22 -3 -30 2
-40 22 -23 51 28 102 61 62z"/>
<path d="M24450 22270 c0 -40 4 -70 10 -70 6 0 10 30 10 70 0 40 -4 70 -10 70
-6 0 -10 -30 -10 -70z"/>
<path d="M24510 22268 c0 -39 4 -68 10 -68 6 0 10 22 10 49 0 51 18 78 45 67
11 -4 15 -21 15 -61 0 -42 3 -55 15 -55 11 0 15 12 15 51 0 74 -11 89 -65 87
l-45 -2 0 -68z"/>
<path d="M31010 22210 c-23 -23 -24 -33 -9 -62 8 -14 8 -23 0 -31 -16 -16 -13
-63 5 -81 9 -9 32 -16 54 -16 22 0 45 7 54 16 18 18 21 65 6 80 -8 8 -7 19 1
37 28 61 -61 107 -111 57z m75 -40 c0 -18 -33 -26 -47 -12 -6 6 -7 15 -3 22
10 16 50 8 50 -10z m3 -87 c3 -20 -1 -23 -27 -23 -23 0 -31 5 -31 18 0 25 10
33 35 30 12 -2 21 -12 23 -25z"/>
<path d="M31261 22204 c-15 -19 -21 -41 -21 -79 0 -70 26 -105 79 -105 57 0
76 27 76 105 0 78 -19 105 -76 105 -29 0 -42 -6 -58 -26z m88 -28 c18 -21 10
-97 -11 -110 -29 -18 -53 4 -56 53 -3 46 10 71 38 71 10 0 23 -6 29 -14z"/>
<path d="M31457 22155 c-20 -42 -37 -80 -37 -85 0 -6 23 -10 50 -10 43 0 50
-3 50 -20 0 -13 7 -20 20 -20 11 0 20 7 20 15 0 9 7 18 15 21 8 4 15 12 15 19
0 7 -7 15 -15 19 -8 3 -15 15 -15 26 0 13 -7 20 -20 20 -15 0 -20 -7 -20 -25
0 -20 -5 -25 -25 -25 -14 0 -25 2 -25 5 0 3 14 32 30 65 35 70 35 70 12 70
-12 0 -29 -24 -55 -75z"/>
<path d="M31635 22217 c-14 -11 -17 -22 -12 -55 3 -23 1 -45 -4 -48 -16 -9
-10 -60 9 -77 19 -17 67 -22 97 -11 28 11 38 53 19 81 -11 18 -13 28 -5 36 17
17 13 52 -7 70 -22 20 -71 22 -97 4z m70 -47 c0 -8 -10 -16 -22 -18 -18 -3
-23 2 -23 18 0 16 5 21 23 18 12 -2 22 -10 22 -18z m9 -76 c9 -22 -1 -34 -29
-34 -27 0 -39 14 -31 35 7 20 52 19 60 -1z"/>
<path d="M5300 21985 l0 -205 35 0 35 0 0 205 0 205 -35 0 -35 0 0 -205z"/>
<path d="M4992 22168 c-27 -27 -6 -68 35 -68 29 0 48 33 33 60 -12 22 -49 27
-68 8z"/>
<path d="M1040 21975 l0 -195 35 0 34 0 3 127 3 127 55 -91 c30 -50 58 -89 61
-87 4 2 29 41 56 87 l48 82 3 -122 3 -123 39 0 40 0 0 195 0 195 -39 0 c-39 0
-40 -2 -92 -85 -29 -47 -55 -88 -59 -90 -3 -2 -30 36 -59 86 -52 88 -54 89
-92 89 l-39 0 0 -195z"/>
<path d="M1870 21976 l0 -196 90 0 c97 0 146 14 189 53 33 31 61 95 61 143 0
55 -41 133 -87 164 -32 22 -49 25 -145 28 l-108 4 0 -196z m225 94 c52 -49 52
-141 0 -190 -20 -19 -40 -25 -90 -28 l-65 -4 0 127 0 127 65 -4 c51 -3 70 -9
90 -28z"/>
<path d="M2810 21975 l0 -195 35 0 35 0 0 88 c0 102 14 132 60 132 46 0 60
-30 60 -132 l0 -88 35 0 35 0 0 88 c0 106 -13 157 -46 178 -33 22 -99 21 -124
-1 -20 -18 -20 -17 -20 53 l0 72 -35 0 -35 0 0 -195z"/>
<path d="M3110 21975 l0 -195 35 0 c25 0 35 4 35 15 0 13 3 13 26 -1 36 -24
104 -22 141 4 112 80 61 265 -73 265 -23 0 -54 -7 -68 -17 l-26 -16 0 70 0 70
-35 0 -35 0 0 -195z m200 5 c29 -29 34 -63 16 -99 -18 -33 -51 -47 -91 -37
-30 8 -59 59 -51 92 15 58 87 83 126 44z"/>
<path d="M4470 22100 l0 -70 -26 16 c-36 24 -108 22 -142 -3 -111 -81 -61
-266 72 -266 25 0 56 7 70 17 23 14 26 14 26 1 0 -11 10 -15 35 -15 l35 0 0
195 0 195 -35 0 -35 0 0 -70z m-38 -114 c60 -45 30 -145 -45 -146 -38 0 -77
40 -77 80 0 61 76 102 122 66z"/>
<path d="M4680 22135 l0 -35 55 0 55 0 0 -160 0 -160 35 0 35 0 0 160 0 160
55 0 55 0 0 35 0 35 -145 0 -145 0 0 -35z"/>
<path d="M5148 22123 c-12 -3 -18 -14 -18 -34 0 -24 -4 -29 -25 -29 -22 0 -25
-4 -25 -35 0 -30 3 -35 24 -35 23 0 24 -3 27 -86 4 -76 7 -88 28 -105 14 -11
39 -19 62 -19 36 0 39 2 39 28 0 22 -7 30 -30 39 -29 11 -30 13 -30 77 l0 66
30 0 c28 0 30 3 30 35 0 32 -2 35 -30 35 -28 0 -30 3 -30 35 0 36 -7 40 -52
28z"/>
<path d="M2323 22059 c-90 -26 -122 -161 -57 -239 42 -50 132 -59 180 -19 11
9 14 8 14 -5 0 -12 9 -16 35 -16 l35 0 0 140 0 140 -35 0 c-25 0 -35 -4 -35
-15 0 -14 -3 -14 -22 -1 -32 20 -78 26 -115 15z m99 -73 c60 -45 30 -145 -45
-146 -38 0 -77 40 -77 80 0 61 76 102 122 66z"/>
<path d="M2636 22059 c-45 -13 -66 -38 -66 -79 0 -44 17 -62 85 -87 29 -11 50
-25 50 -33 0 -21 -58 -25 -78 -5 -13 12 -20 13 -41 3 -71 -32 29 -98 118 -78
48 10 76 40 76 80 0 39 -27 66 -85 87 -58 22 -75 53 -28 53 16 0 34 -5 39 -10
13 -13 66 8 61 24 -5 15 -49 43 -77 49 -14 3 -38 1 -54 -4z"/>
<path d="M3525 22055 c-132 -47 -123 -238 13 -274 96 -26 182 39 182 139 0
104 -95 170 -195 135z m99 -76 c59 -47 15 -149 -59 -135 -95 19 -81 152 16
155 9 1 28 -8 43 -20z"/>
<path d="M3843 22063 c-12 -2 -35 -17 -52 -32 -116 -109 0 -312 140 -243 30
15 39 16 39 6 0 -9 12 -14 35 -14 l35 0 0 140 0 140 -35 0 c-23 0 -35 -5 -35
-14 0 -11 -8 -10 -37 5 -37 19 -47 20 -90 12z m102 -88 c70 -69 -31 -182 -103
-115 -28 27 -37 62 -21 92 28 53 84 64 124 23z"/>
<path d="M5504 22059 c-72 -21 -117 -106 -96 -178 24 -78 100 -121 182 -102
38 9 80 35 80 51 0 15 -51 30 -70 20 -30 -16 -85 -12 -103 8 -10 10 -17 22
-17 25 0 4 47 7 105 7 l105 0 0 31 c0 96 -94 166 -186 138z m99 -81 l22 -23
-69 -3 c-37 -2 -71 -1 -74 2 -3 3 3 15 13 26 25 28 79 26 108 -2z"/>
<path d="M1486 21953 c66 -154 70 -169 53 -189 -7 -9 -23 -20 -36 -25 -33 -12
-33 -69 0 -69 29 0 82 33 101 62 8 13 34 75 56 138 23 63 48 132 56 153 l13
37 -38 0 -37 0 -29 -90 c-16 -49 -31 -90 -34 -90 -3 0 -21 41 -40 90 l-33 90
-39 0 -38 0 45 -107z"/>
<path d="M4090 21920 l0 -140 35 0 35 0 0 83 c0 89 8 106 58 121 17 6 22 15
22 42 0 27 -4 34 -20 34 -11 0 -29 -9 -40 -20 l-20 -20 0 20 c0 16 -7 20 -35
20 l-35 0 0 -140z"/>
<path d="M4990 21920 l0 -140 35 0 35 0 0 140 0 140 -35 0 -35 0 0 -140z"/>
<path d="M31168 22020 c-3 -32 0 -40 13 -40 10 0 19 11 23 31 9 46 8 49 -13
49 -15 0 -20 -9 -23 -40z"/>
<path d="M31010 20530 c-23 -23 -24 -33 -9 -62 8 -14 8 -23 0 -31 -16 -16 -13
-63 5 -81 9 -9 32 -16 54 -16 22 0 45 7 54 16 18 18 21 65 6 80 -8 8 -7 19 1
37 28 61 -61 107 -111 57z m75 -40 c0 -18 -33 -26 -47 -12 -6 6 -7 15 -3 22
10 16 50 8 50 -10z m3 -87 c3 -20 -1 -23 -27 -23 -23 0 -31 5 -31 18 0 25 10
33 35 30 12 -2 21 -12 23 -25z"/>
<path d="M31166 20531 c-17 -19 -17 -20 3 -30 13 -7 22 -8 26 -1 9 15 42 12
49 -5 3 -10 -13 -36 -44 -70 -69 -76 -67 -85 20 -85 63 0 70 2 70 20 0 16 -7
20 -35 20 l-35 0 35 46 c19 25 35 50 35 55 0 15 -21 53 -34 61 -21 15 -73 8
-90 -11z"/>
<path d="M31320 20530 c0 -16 7 -20 35 -20 39 0 42 -5 20 -30 -19 -21 -10 -50
15 -50 19 0 30 -17 23 -37 -6 -15 -49 -17 -58 -3 -4 7 -13 6 -26 -1 -20 -10
-20 -11 -3 -30 23 -26 85 -26 109 1 24 26 22 70 -4 91 -21 17 -21 17 -1 42 36
46 28 57 -45 57 -58 0 -65 -2 -65 -20z"/>
<path d="M10078 19974 c-28 -15 -36 -38 -19 -48 5 -4 23 2 40 11 24 14 35 15
48 7 36 -23 27 -51 -41 -123 -36 -39 -66 -77 -66 -86 0 -12 16 -15 90 -15 83
0 90 1 90 20 0 18 -7 20 -56 20 l-56 0 46 51 c68 76 74 134 16 164 -36 19 -57
18 -92 -1z"/>
<path d="M10545 19965 c-27 -26 -31 -54 -15 -86 8 -14 7 -25 -5 -41 -38 -55 3
-118 78 -118 33 0 49 6 65 23 26 28 28 73 5 99 -13 14 -14 21 -5 30 7 7 12 27
12 44 0 66 -87 98 -135 49z m79 -21 c21 -8 20 -51 -1 -62 -24 -13 -63 3 -63
26 0 34 29 50 64 36z m16 -118 c6 -8 10 -25 8 -38 -2 -18 -10 -24 -36 -26 -38
-4 -62 12 -62 39 0 35 66 53 90 25z"/>
<path d="M8649 19953 c-31 -79 -79 -216 -79 -224 0 -5 9 -9 19 -9 12 0 23 11
30 30 9 29 13 30 66 30 53 0 57 -1 66 -30 7 -19 18 -30 30 -30 10 0 19 4 19 8
0 5 -20 62 -44 128 -39 108 -46 119 -70 122 -21 3 -28 -2 -37 -25z m68 -114
c5 -28 4 -29 -36 -29 -22 0 -41 2 -41 4 0 2 10 30 22 62 l22 58 14 -33 c7 -18
16 -46 19 -62z"/>
<path d="M8810 19879 c0 -98 1 -101 29 -130 39 -38 97 -40 138 -5 27 23 28 28
31 130 4 102 3 106 -17 106 -20 0 -21 -5 -21 -94 0 -105 -10 -126 -60 -126
-50 0 -60 21 -60 126 0 87 -1 94 -20 94 -19 0 -20 -7 -20 -101z"/>
<path d="M9050 19849 l0 -131 76 4 c73 3 77 5 110 41 28 30 34 44 34 82 0 97
-42 135 -147 135 l-73 0 0 -131z m157 69 c23 -22 31 -75 17 -113 -9 -23 -57
-45 -99 -45 l-35 0 0 96 0 97 47 -7 c27 -3 57 -15 70 -28z"/>
<path d="M9405 19890 c-25 -49 -45 -96 -45 -105 0 -12 14 -15 65 -15 63 0 65
-1 65 -25 0 -33 37 -35 42 -2 3 20 9 22 86 25 82 3 82 3 82 -23 0 -18 5 -25
20 -25 15 0 20 7 20 25 0 16 6 25 15 25 8 0 15 9 15 20 0 11 -7 20 -15 20 -10
0 -15 11 -15 35 0 28 -4 35 -20 35 -16 0 -20 -7 -20 -35 0 -34 -1 -35 -40 -35
-22 0 -40 2 -40 5 0 3 17 38 37 78 21 39 39 75 41 80 2 4 -5 7 -17 7 -15 0
-32 -22 -67 -89 -38 -69 -52 -87 -66 -83 -13 3 -18 14 -18 39 0 27 -4 34 -17
31 -12 -2 -19 -14 -21 -36 -3 -30 -6 -32 -43 -32 l-39 0 40 80 c22 44 40 82
40 85 0 3 -9 5 -20 5 -15 0 -31 -22 -65 -90z"/>
<path d="M9918 19922 c-51 -79 -62 -106 -54 -136 16 -65 99 -88 151 -43 52 44
22 147 -42 147 -28 0 -28 4 -5 38 34 49 35 52 10 52 -17 0 -32 -15 -60 -58z
m64 -74 c40 -33 19 -88 -32 -88 -47 0 -64 46 -30 80 23 23 40 25 62 8z"/>
<path d="M10262 19895 c-59 -119 -58 -125 23 -125 63 0 65 -1 65 -25 0 -18 5
-25 20 -25 15 0 20 7 20 25 0 16 6 25 15 25 8 0 15 9 15 20 0 11 -7 20 -15 20
-10 0 -15 11 -15 35 0 28 -4 35 -20 35 -16 0 -20 -7 -20 -35 0 -34 -1 -35 -40
-35 -22 0 -40 2 -40 5 0 3 18 41 40 85 39 78 40 80 17 80 -18 0 -30 -15 -65
-85z"/>
<path d="M27387 19872 c-37 -37 -67 -73 -67 -80 0 -9 36 -12 140 -12 110 0
140 3 140 13 0 12 -131 147 -142 147 -2 0 -34 -30 -71 -68z"/>
<path d="M22427 19793 c-24 -6 -47 -55 -47 -101 0 -54 31 -92 75 -92 48 0 75
37 75 102 0 39 -5 54 -25 73 -23 24 -40 28 -78 18z m60 -50 c23 -60 -8 -124
-48 -102 -19 10 -26 68 -13 103 8 22 53 20 61 -1z"/>
<path d="M22648 19789 c-10 -5 -18 -16 -18 -23 0 -18 25 -27 38 -14 14 14 42
3 42 -17 0 -9 -20 -38 -45 -64 -25 -26 -45 -53 -45 -60 0 -7 23 -11 65 -11 58
0 65 2 65 20 0 16 -7 20 -32 20 l-31 0 20 23 c46 50 54 86 23 117 -22 22 -55
25 -82 9z"/>
<path d="M22798 19788 c-32 -11 -38 -38 -8 -38 18 0 20 -7 20 -75 0 -68 2 -75
20 -75 19 0 20 7 20 100 0 107 0 107 -52 88z"/>
<path d="M22890 19780 c0 -16 7 -20 36 -20 l36 0 -17 -27 c-17 -25 -17 -27 1
-40 10 -7 21 -13 26 -13 4 0 8 -8 8 -19 0 -21 -30 -33 -53 -20 -8 5 -23 6 -32
3 -27 -11 11 -44 52 -44 62 0 94 60 52 99 -20 18 -20 21 -5 42 32 46 22 59
-44 59 -53 0 -60 -2 -60 -20z"/>
<path d="M23037 19793 c-20 -19 -5 -33 37 -33 l45 0 -30 -71 c-34 -84 -35 -89
-11 -89 12 0 26 23 50 83 45 115 44 117 -26 117 -32 0 -62 -3 -65 -7z"/>
<path d="M10437 19757 c-8 -21 8 -39 29 -35 27 5 25 42 -2 46 -12 2 -24 -3
-27 -11z"/>
<path d="M9796 19729 c-9 -47 -7 -59 9 -59 8 0 19 16 24 38 14 50 14 52 -8 52
-13 0 -20 -10 -25 -31z"/>
<path d="M22555 19630 c-4 -7 -3 -16 3 -22 14 -14 45 -2 40 15 -6 16 -34 21
-43 7z"/>
<path d="M31002 18859 c-28 -11 -24 -33 6 -37 20 -3 22 -9 22 -83 0 -72 2 -79
20 -79 19 0 20 7 20 105 0 102 -1 105 -22 104 -13 0 -34 -4 -46 -10z"/>
<path d="M31139 18808 c-42 -66 -45 -94 -12 -130 22 -24 78 -23 103 2 37 37
13 120 -36 120 -13 0 -12 5 5 29 26 36 26 41 1 41 -14 0 -33 -20 -61 -62z m69
-75 c4 -30 -31 -49 -52 -27 -18 18 -18 17 -10 39 10 25 58 16 62 -12z"/>
<path d="M31370 18848 c0 -13 -3 -40 -6 -60 l-6 -37 48 -3 c41 -3 49 -6 49
-23 0 -23 -38 -33 -59 -16 -9 8 -18 7 -31 -3 -17 -12 -17 -14 6 -29 65 -46
152 10 118 75 -15 29 -28 38 -56 38 -16 0 -23 6 -23 20 0 17 7 20 40 20 33 0
40 3 40 20 0 18 -7 20 -60 20 -56 0 -60 -2 -60 -22z"/>
<path d="M31562 18864 c-20 -9 -42 -60 -42 -99 0 -71 40 -112 100 -103 57 8
84 121 42 177 -19 25 -68 38 -100 25z m74 -64 c4 -16 6 -32 6 -35 0 -3 -2 -19
-6 -35 -4 -24 -11 -30 -30 -30 -28 0 -46 25 -46 65 0 40 18 65 46 65 19 0 26
-6 30 -30z"/>
<path d="M31700 18850 c0 -17 7 -20 41 -20 l41 0 -16 -25 c-22 -33 -20 -44 10
-55 16 -7 24 -16 22 -28 -4 -20 -47 -29 -59 -11 -6 10 -11 10 -23 -1 -15 -12
-15 -14 0 -31 23 -25 85 -25 107 -1 23 25 21 68 -4 93 -19 19 -19 22 -5 38 9
10 16 27 16 39 0 20 -5 22 -65 22 -58 0 -65 -2 -65 -20z"/>
<path d="M31278 18660 c-3 -32 0 -40 13 -40 10 0 19 11 23 31 9 46 8 49 -13
49 -15 0 -20 -9 -23 -40z"/>
<path d="M13072 17885 c-229 -78 -704 -381 -1134 -721 -306 -243 -337 -279
-1043 -1210 -387 -509 -614 -759 -760 -836 -145 -75 -403 -146 -1064 -293
-212 -47 -386 -86 -387 -88 -2 -1 1 -8 5 -15 6 -10 107 9 442 83 624 138 819
192 1006 280 172 81 329 255 878 975 637 836 680 882 1095 1195 507 382 931
625 1090 625 56 0 86 -23 149 -115 140 -202 325 -652 656 -1595 342 -974 451
-1255 596 -1540 83 -161 153 -260 201 -283 104 -49 253 85 651 587 100 126
252 317 337 425 247 311 422 492 527 545 147 74 590 -111 1356 -565 228 -136
317 -204 578 -440 662 -599 827 -735 1008 -826 83 -43 100 -48 155 -47 169 3
459 189 1121 720 138 110 285 226 327 258 69 51 87 76 58 76 -13 0 -142 -99
-430 -330 -628 -502 -920 -691 -1075 -692 -140 -1 -373 166 -880 631 -195 179
-467 418 -555 487 -204 161 -958 578 -1256 694 -199 78 -338 100 -415 66 -126
-54 -331 -277 -731 -792 -448 -579 -661 -800 -749 -777 -32 9 -103 99 -169
214 -126 223 -281 618 -620 1584 -385 1099 -574 1539 -727 1693 -51 51 -53 52
-110 52 -35 0 -87 -10 -131 -25z"/>
<path d="M27387 17612 c-37 -37 -67 -73 -67 -80 0 -9 36 -12 140 -12 110 0
140 3 140 13 0 12 -131 147 -142 147 -2 0 -34 -30 -71 -68z"/>
<path d="M22427 17513 c-24 -6 -47 -55 -47 -101 0 -54 31 -92 75 -92 48 0 75
37 75 102 0 39 -5 54 -25 73 -23 24 -40 28 -78 18z m60 -50 c23 -60 -8 -124
-48 -102 -19 10 -26 68 -13 103 8 22 53 20 61 -1z"/>
<path d="M22648 17509 c-10 -5 -18 -16 -18 -23 0 -18 25 -27 38 -14 14 14 42
3 42 -17 0 -9 -20 -38 -45 -64 -25 -26 -45 -53 -45 -60 0 -7 23 -11 65 -11 58
0 65 2 65 20 0 16 -7 20 -32 20 l-31 0 20 23 c46 50 54 86 23 117 -22 22 -55
25 -82 9z"/>
<path d="M22806 17455 c-49 -90 -48 -105 9 -105 33 0 45 -4 45 -15 0 -8 9 -15
20 -15 11 0 20 7 20 15 0 8 5 15 10 15 6 0 10 9 10 20 0 11 -4 20 -10 20 -5 0
-10 9 -10 20 0 13 -7 20 -20 20 -13 0 -20 -7 -20 -20 0 -14 -7 -20 -24 -20
l-24 0 29 53 c32 58 36 77 15 77 -8 0 -30 -29 -50 -65z"/>
<path d="M22957 17514 c-4 -4 -7 -29 -7 -56 0 -46 1 -48 28 -48 16 0 37 -7 48
-15 18 -15 18 -15 1 -29 -15 -11 -24 -12 -43 -4 -33 15 -52 -2 -29 -26 21 -20
79 -21 99 0 36 35 10 104 -40 104 -17 0 -24 5 -24 20 0 17 7 20 41 20 33 0 40
3 37 18 -2 13 -15 18 -53 20 -28 2 -54 0 -58 -4z"/>
<path d="M23120 17500 c-23 -23 -24 -33 -10 -60 7 -13 7 -21 0 -25 -18 -11
-12 -73 9 -85 49 -26 111 -4 111 38 0 16 -5 33 -11 39 -8 8 -8 17 0 31 6 11
11 25 11 31 0 20 -40 51 -65 51 -14 0 -34 -9 -45 -20z m68 -37 c5 -17 -26 -29
-40 -15 -6 6 -7 15 -3 22 9 14 37 9 43 -7z m12 -83 c0 -5 -10 -14 -21 -21 -17
-9 -25 -8 -38 6 -15 15 -15 17 3 30 19 15 56 5 56 -15z"/>
<path d="M22555 17350 c-4 -7 -3 -16 3 -22 14 -14 45 -2 40 15 -6 16 -34 21
-43 7z"/>
<path d="M27387 15332 c-37 -37 -67 -73 -67 -80 0 -9 36 -12 140 -12 110 0
140 3 140 13 0 12 -131 147 -142 147 -2 0 -34 -30 -71 -68z"/>
<path d="M22427 15253 c-24 -6 -47 -55 -47 -101 0 -54 31 -92 75 -92 48 0 75
37 75 102 0 39 -5 54 -25 73 -23 24 -40 28 -78 18z m60 -50 c23 -60 -8 -124
-48 -102 -19 10 -26 68 -13 103 8 22 53 20 61 -1z"/>
<path d="M2554 13740 c-28 -11 -39 -29 -26 -42 8 -8 15 -8 26 1 23 19 60 10
64 -17 2 -16 -12 -39 -52 -80 -31 -33 -56 -64 -56 -70 0 -8 25 -12 75 -12 60
0 75 3 75 15 0 11 -12 15 -46 15 l-46 0 41 49 c28 34 41 58 41 79 0 29 -21 62
-40 62 -5 0 -14 2 -22 4 -7 3 -23 1 -34 -4z"/>
<path d="M2832 13740 c-35 -14 -48 -54 -29 -84 14 -21 14 -26 2 -36 -21 -17
-19 -64 3 -83 26 -24 87 -22 112 3 24 24 25 48 5 77 -12 18 -13 26 -4 41 19
30 4 68 -32 81 -18 6 -32 11 -33 10 -1 0 -11 -4 -24 -9z m64 -45 c8 -20 -13
-45 -38 -45 -21 0 -33 22 -24 45 7 20 55 19 62 0z m3 -94 c23 -42 -46 -71 -72
-29 -8 12 -7 21 2 32 18 22 58 20 70 -3z"/>
<path d="M3539 13739 c-25 -9 -49 -45 -49 -73 0 -22 40 -66 61 -66 24 0 24 -8
-1 -40 -24 -31 -25 -40 -2 -40 16 0 81 88 98 133 11 29 -15 75 -48 86 -17 6
-31 11 -32 10 -1 0 -13 -5 -27 -10z m66 -63 c0 -52 -63 -62 -73 -12 -7 33 6
47 40 44 29 -3 33 -7 33 -32z"/>
<path d="M1403 13630 c-37 -101 -39 -110 -22 -110 12 0 23 10 29 25 8 22 16
25 55 25 39 0 47 -3 55 -25 9 -22 40 -36 40 -17 0 4 -16 53 -36 110 -32 88
-40 102 -59 102 -19 0 -28 -15 -62 -110z m91 -7 c7 -21 4 -23 -28 -23 -20 0
-36 1 -36 3 0 2 8 26 17 53 l17 49 12 -30 c6 -17 15 -40 18 -52z"/>
<path d="M1580 13650 c0 -107 14 -130 80 -130 66 0 80 23 80 130 0 73 -3 90
-15 90 -12 0 -15 -15 -15 -79 0 -84 -12 -111 -50 -111 -38 0 -50 27 -50 111 0
64 -3 79 -15 79 -12 0 -15 -17 -15 -90z"/>
<path d="M1780 13629 l0 -111 66 4 c60 4 70 7 95 36 41 46 41 107 0 151 -27
29 -34 31 -95 31 l-66 0 0 -111z m135 56 c43 -42 29 -105 -26 -124 -66 -23
-69 -20 -69 69 l0 80 35 0 c25 0 44 -8 60 -25z"/>
<path d="M2078 13733 c-28 -7 -22 -33 7 -33 25 0 25 -1 25 -90 0 -73 3 -90 15
-90 12 0 15 19 15 110 0 108 0 110 -22 109 -13 -1 -31 -3 -40 -6z"/>
<path d="M2180 13725 c0 -11 12 -15 46 -15 l45 0 -25 -33 c-26 -34 -21 -57 11
-57 7 0 17 -9 23 -19 20 -38 -42 -70 -70 -36 -10 12 -16 13 -27 3 -13 -10 -12
-15 7 -30 31 -25 84 -23 110 4 27 30 25 64 -7 94 l-26 24 21 23 c41 43 30 57
-43 57 -51 0 -65 -3 -65 -15z"/>
<path d="M2330 13725 c0 -11 12 -15 50 -15 28 0 50 -3 50 -6 0 -3 -16 -44 -35
-91 -36 -85 -38 -100 -13 -90 14 5 88 175 88 202 0 12 -14 15 -70 15 -56 0
-70 -3 -70 -15z"/>
<path d="M2688 13733 c-28 -7 -22 -33 7 -33 25 0 25 -1 25 -90 0 -73 3 -90 15
-90 12 0 15 19 15 110 0 108 0 110 -22 109 -13 -1 -31 -3 -40 -6z"/>
<path d="M3070 13678 c-46 -70 -50 -105 -17 -136 50 -47 127 -15 127 51 0 33
-24 67 -48 67 -22 0 -23 21 -2 50 l21 30 -21 0 c-14 0 -32 -18 -60 -62z m76
-74 c9 -34 -15 -59 -49 -50 -51 12 -40 76 13 76 24 0 31 -5 36 -26z"/>
<path d="M3188 13729 c-26 -14 -22 -29 7 -29 25 0 25 -1 25 -90 0 -83 1 -90
20 -90 19 0 20 7 20 110 l0 110 -27 0 c-16 0 -36 -5 -45 -11z"/>
<path d="M3290 13725 c0 -11 12 -15 46 -15 l45 0 -20 -29 c-27 -38 -26 -49 4
-57 29 -7 42 -39 25 -59 -16 -19 -40 -19 -68 1 -20 14 -23 14 -29 -2 -9 -23
22 -44 64 -44 68 0 100 79 47 117 l-25 19 20 26 c37 47 29 58 -44 58 -51 0
-65 -3 -65 -15z"/>
<path d="M2455 13548 c-11 -38 -11 -68 0 -68 12 0 35 48 35 71 0 14 -30 10
-35 -3z"/>
<path d="M2970 13536 c0 -13 -3 -31 -6 -40 -4 -10 -1 -16 9 -16 8 0 18 11 21
24 3 13 9 31 12 40 4 12 0 16 -15 16 -16 0 -21 -6 -21 -24z"/>
<path d="M3455 13550 c-8 -14 3 -30 21 -30 8 0 14 9 14 20 0 21 -24 28 -35 10z"/>
<path d="M1410 13235 c0 -68 -2 -75 -20 -75 -11 0 -20 -4 -20 -9 0 -5 9 -11
20 -14 14 -4 20 -14 20 -32 0 -27 0 -27 64 -23 45 3 71 10 85 22 27 25 27 71
1 89 -18 13 -19 16 -5 27 20 17 19 53 -3 73 -13 12 -37 17 -80 17 l-62 0 0
-75z m118 43 c33 -33 -3 -72 -61 -66 -25 2 -33 8 -35 26 -6 40 5 52 46 52 21
0 43 -5 50 -12z m12 -102 c6 -8 10 -25 8 -38 -3 -21 -9 -23 -60 -26 -39 -2
-58 1 -58 8 0 7 9 14 20 17 11 3 20 9 20 14 0 5 -9 9 -20 9 -11 0 -20 7 -20
15 0 21 93 21 110 1z"/>
<path d="M1962 13302 c-38 -6 -64 -58 -59 -120 5 -64 35 -102 81 -102 55 1 86
41 86 112 0 77 -42 120 -108 110z m64 -57 c12 -18 15 -38 11 -67 -7 -51 -27
-73 -60 -64 -43 10 -58 100 -24 144 16 21 55 14 73 -13z"/>
<path d="M2304 13296 c-32 -14 -44 -33 -44 -70 0 -28 35 -66 60 -66 26 0 25
-6 -6 -47 -24 -31 -24 -33 -5 -33 29 0 101 109 101 153 0 56 -51 86 -106 63z
m70 -48 c15 -24 -3 -52 -37 -56 -33 -4 -53 28 -37 59 14 25 58 23 74 -3z"/>
<path d="M1680 13285 c0 -11 12 -15 46 -15 l45 0 -25 -33 c-26 -34 -21 -57 11
-57 7 0 17 -9 23 -19 20 -38 -42 -70 -70 -36 -10 12 -16 13 -27 3 -13 -10 -12
-15 7 -30 31 -25 84 -23 110 4 27 30 25 64 -7 94 l-26 24 21 23 c41 43 30 57
-43 57 -51 0 -65 -3 -65 -15z"/>
<path d="M2125 13230 c-50 -100 -48 -110 20 -110 48 0 55 -2 55 -20 0 -11 7
-20 15 -20 8 0 15 9 15 20 0 11 7 20 15 20 8 0 15 7 15 15 0 8 -7 15 -15 15
-10 0 -15 10 -15 30 0 39 -27 41 -32 3 -2 -23 -8 -29 -35 -31 -42 -4 -42 5 2
85 33 58 35 63 16 63 -16 0 -30 -18 -56 -70z"/>
<path d="M2477 13293 c-4 -3 -7 -28 -7 -55 0 -44 2 -48 24 -48 46 0 76 -18 76
-45 0 -32 -42 -45 -68 -22 -12 11 -22 13 -32 7 -25 -16 16 -50 61 -50 65 0 98
68 57 118 -6 6 -28 15 -50 18 -29 5 -38 11 -34 21 4 8 6 19 6 24 0 5 20 9 45
9 33 0 45 4 45 15 0 12 -13 15 -58 15 -32 0 -62 -3 -65 -7z"/>
<path d="M2657 13225 c-50 -101 -49 -105 18 -105 48 0 55 -2 55 -20 0 -13 7
-20 20 -20 13 0 20 7 20 20 0 11 5 20 10 20 6 0 10 7 10 15 0 8 -4 15 -10 15
-5 0 -10 14 -10 30 0 23 -4 30 -20 30 -16 0 -20 -7 -20 -30 0 -28 -3 -30 -35
-30 -19 0 -35 3 -35 7 0 3 16 34 35 69 40 72 41 74 17 74 -12 0 -29 -24 -55
-75z"/>
<path d="M27387 13072 c-37 -37 -67 -73 -67 -80 0 -9 36 -12 140 -12 110 0
140 3 140 13 0 12 -131 147 -142 147 -2 0 -34 -30 -71 -68z"/>
<path d="M1844 13085 c-3 -20 -4 -39 0 -42 10 -11 25 10 32 45 5 25 3 32 -9
32 -10 0 -18 -13 -23 -35z"/>
<path d="M2395 13110 c-8 -14 3 -30 21 -30 8 0 14 9 14 20 0 21 -24 28 -35 10z"/>
<path d="M22427 12973 c-24 -6 -47 -55 -47 -101 0 -54 31 -92 75 -92 48 0 75
37 75 102 0 39 -5 54 -25 73 -23 24 -40 28 -78 18z m60 -50 c23 -60 -8 -124
-48 -102 -19 10 -26 68 -13 103 8 22 53 20 61 -1z"/>
<path d="M8670 12820 c-10 -6 -11 -10 -2 -10 16 0 17 -121 0 -138 -9 -9 -7
-12 13 -12 24 0 24 1 21 85 -2 47 -7 85 -10 85 -4 0 -14 -5 -22 -10z"/>
<path d="M10169 12808 c-12 -22 -11 -23 8 -5 41 36 78 -12 48 -61 -10 -15 -29
-39 -43 -54 l-26 -28 51 0 c32 0 53 5 56 13 3 9 -6 11 -35 9 l-40 -4 36 47
c20 25 36 54 36 64 0 44 -70 58 -91 19z"/>
<path d="M11709 12813 c-13 -15 -12 -15 8 -3 18 12 24 12 37 0 15 -12 15 -15
1 -36 -14 -22 -14 -25 5 -44 17 -17 19 -24 9 -43 -11 -20 -11 -21 4 -8 21 17
22 70 2 77 -11 5 -12 10 -3 24 26 41 -32 71 -63 33z"/>
<path d="M13274 12803 c-15 -24 -15 -26 -1 -14 15 12 17 10 17 -28 0 -39 -1
-41 -31 -41 l-31 0 16 28 17 27 -20 -24 c-31 -35 -27 -51 14 -51 28 0 35 -4
35 -20 0 -11 5 -20 10 -20 6 0 10 9 10 19 0 11 6 22 13 25 10 5 10 7 0 12 -8
3 -13 26 -13 60 0 60 -9 67 -36 27z"/>
<path d="M14775 12801 c-14 -29 -14 -29 14 -39 39 -14 56 -45 40 -74 -11 -21
-11 -22 4 -9 35 28 15 91 -33 106 -26 8 -16 25 15 25 13 0 27 5 30 10 4 6 -6
10 -24 10 -24 0 -34 -7 -46 -29z"/>
<path d="M16316 12804 c-32 -33 -37 -101 -8 -127 24 -22 38 -22 17 0 -23 22
-13 98 17 130 30 32 7 29 -26 -3z"/>
<path d="M17820 12820 c0 -5 18 -10 40 -10 22 0 40 -1 40 -3 0 -2 -11 -36 -24
-75 -14 -40 -21 -72 -17 -72 4 0 18 33 30 73 13 39 26 78 28 85 4 8 -9 12 -46
12 -28 0 -51 -4 -51 -10z"/>
<path d="M19361 12812 c-7 -14 -6 -25 5 -40 13 -19 13 -24 -1 -46 -19 -29 -6
-66 23 -66 16 1 16 1 0 11 -21 12 -23 40 -6 57 9 9 16 8 30 -5 20 -18 24 -53
6 -53 -6 0 -8 -3 -5 -6 10 -10 37 16 37 36 0 10 -19 36 -42 58 -36 35 -40 43
-29 56 9 10 9 16 3 16 -6 0 -16 -8 -21 -18z"/>
<path d="M19422 12811 c9 -15 9 -23 -1 -35 -17 -21 -7 -21 13 0 12 12 13 20 6
35 -6 10 -15 19 -20 19 -6 0 -5 -8 2 -19z"/>
<path d="M20892 12818 c-7 -7 -12 -27 -12 -45 0 -37 28 -58 61 -48 18 6 19 4
10 -14 -6 -11 -21 -27 -33 -35 -12 -9 -17 -16 -11 -16 21 0 63 44 72 76 10 35
-10 94 -31 94 -9 0 -9 -3 0 -12 18 -18 15 -75 -4 -82 -36 -14 -62 52 -32 82 7
7 8 12 2 12 -5 0 -15 -5 -22 -12z"/>
<path d="M16348 12754 c24 -17 30 -62 10 -82 -8 -8 -8 -12 -1 -12 17 0 36 28
36 55 0 32 -20 55 -46 55 -21 0 -21 0 1 -16z"/>
<path d="M11700 12670 c0 -5 12 -10 28 -9 24 0 25 1 7 9 -27 12 -35 12 -35 0z"/>
<path d="M14755 12670 c3 -5 18 -10 33 -9 24 0 25 1 7 9 -28 12 -47 12 -40 0z"/>
<path d="M2420 11045 l0 -165 25 0 25 0 0 165 0 165 -25 0 -25 0 0 -165z"/>
<path d="M2962 11201 c-20 -12 -11 -55 12 -59 27 -6 48 25 35 49 -10 20 -26
24 -47 10z"/>
<path d="M1579 11040 l-56 -160 33 0 c27 0 34 5 43 30 10 29 12 30 75 30 62 0
64 -1 75 -30 8 -24 16 -30 40 -30 17 0 31 3 31 8 0 4 -24 75 -54 157 l-53 150
-39 3 -39 3 -56 -161z m119 20 l21 -60 -45 0 c-24 0 -44 2 -44 4 0 3 20 62 35
104 8 21 13 14 33 -48z"/>
<path d="M2818 11163 c-11 -3 -18 -14 -18 -29 0 -17 -5 -24 -20 -24 -16 0 -20
-7 -20 -30 0 -23 4 -30 20 -30 18 0 20 -7 20 -65 0 -78 19 -105 75 -105 30 0
35 3 35 24 0 18 -6 25 -22 28 -20 3 -23 10 -26 60 -3 52 -1 57 20 60 17 2 24
11 26 31 3 23 0 27 -22 27 -22 0 -26 4 -26 30 0 30 -6 33 -42 23z"/>
<path d="M1860 10995 l0 -115 25 0 c24 0 25 3 25 63 0 72 16 111 48 115 42 6
52 -14 52 -99 l0 -79 30 0 30 0 0 90 c0 83 -2 93 -25 115 -27 28 -91 35 -114
13 -11 -10 -14 -10 -18 0 -3 6 -16 12 -29 12 -24 0 -24 0 -24 -115z"/>
<path d="M2155 11088 c-50 -43 -50 -143 0 -185 28 -25 91 -31 126 -13 13 7 19
7 19 0 0 -5 14 -10 30 -10 l30 0 0 115 0 115 -30 0 c-16 0 -30 -5 -30 -10 0
-7 -6 -7 -19 0 -35 18 -98 12 -126 -12z m125 -48 c40 -40 11 -110 -45 -110
-32 0 -65 33 -65 65 0 32 33 65 65 65 14 0 34 -9 45 -20z"/>
<path d="M2513 11098 c3 -7 24 -57 47 -111 23 -55 39 -105 36 -113 -3 -8 -17
-19 -31 -26 -28 -13 -36 -58 -10 -58 30 0 75 30 90 60 14 27 95 245 95 256 0
2 -13 4 -28 4 -27 0 -30 -5 -52 -75 -13 -42 -27 -72 -31 -68 -5 5 -19 37 -32
73 -23 60 -27 65 -57 68 -24 3 -31 0 -27 -10z"/>
<path d="M2950 10995 l0 -115 30 0 30 0 0 115 0 115 -30 0 -30 0 0 -115z"/>
<path d="M3098 11081 c-30 -27 -33 -35 -33 -86 0 -51 3 -59 33 -86 40 -36 100
-39 150 -9 38 23 40 33 10 47 -16 7 -30 5 -50 -6 -25 -14 -30 -15 -55 -1 -23
13 -28 23 -28 55 0 32 5 42 28 55 25 14 30 13 56 -1 22 -13 32 -14 48 -5 25
14 19 32 -17 51 -48 25 -105 19 -142 -14z"/>
<path d="M3347 11099 c-10 -6 -22 -22 -28 -36 -14 -36 9 -66 66 -87 46 -18 55
-38 20 -44 -10 -2 -28 2 -42 9 -20 11 -26 10 -41 -5 -16 -16 -16 -18 7 -37 35
-29 105 -26 136 6 43 42 28 87 -35 106 -50 15 -70 36 -45 45 10 4 25 3 34 -3
17 -11 61 2 61 18 0 31 -94 51 -133 28z"/>
<path d="M21231 11052 c-82 -13 -124 -105 -86 -186 30 -63 118 -86 183 -46 37
23 39 28 15 45 -14 10 -22 9 -44 -7 -53 -40 -123 4 -121 75 2 60 81 99 123 61
17 -15 59 -12 59 5 0 29 -79 61 -129 53z"/>
<path d="M21620 11045 c-10 -12 -10 -18 0 -29 16 -20 42 -8 38 17 -4 26 -21
32 -38 12z"/>
<path d="M22500 10930 c0 -123 1 -130 20 -130 19 0 20 7 20 130 0 123 -1 130
-20 130 -19 0 -20 -7 -20 -130z"/>
<path d="M23000 10930 c0 -123 1 -130 20 -130 19 0 20 7 20 130 0 123 -1 130
-20 130 -19 0 -20 -7 -20 -130z"/>
<path d="M22058 11032 c-55 -34 -73 -112 -38 -169 30 -50 62 -66 121 -61 58 6
102 39 81 60 -9 9 -21 7 -51 -7 -35 -15 -45 -16 -71 -5 -36 15 -50 37 -50 80
0 63 75 101 127 65 21 -15 53 -11 53 5 0 5 -12 18 -26 29 -33 26 -107 28 -146
3z"/>
<path d="M23358 11022 c-10 -2 -18 -12 -18 -23 0 -12 -7 -19 -20 -19 -13 0
-20 -7 -20 -19 0 -10 9 -21 20 -24 17 -4 20 -14 20 -61 0 -59 13 -76 59 -76
28 0 28 36 1 43 -16 4 -20 14 -20 51 0 39 3 46 20 46 13 0 20 7 20 20 0 13 -7
20 -19 20 -13 0 -21 8 -23 23 -2 15 -9 21 -20 19z"/>
<path d="M21423 10956 c-61 -53 -21 -156 62 -156 21 0 44 9 62 24 61 53 21
156 -62 156 -21 0 -44 -9 -62 -24z m95 -28 c7 -7 12 -24 12 -38 0 -53 -57 -69
-86 -25 -15 23 -15 27 0 50 18 27 54 33 74 13z"/>
<path d="M21620 10890 c0 -83 1 -90 20 -90 19 0 20 7 20 90 0 83 -1 90 -20 90
-19 0 -20 -7 -20 -90z"/>
<path d="M21710 10890 c0 -83 1 -90 20 -90 18 0 20 7 20 58 0 62 11 82 46 82
27 0 34 -17 34 -86 0 -47 2 -54 20 -54 18 0 20 7 20 73 0 59 -4 77 -18 90 -22
20 -73 22 -90 5 -9 -9 -12 -9 -12 0 0 7 -9 12 -20 12 -19 0 -20 -7 -20 -90z"/>
<path d="M22297 10962 c-27 -30 -38 -69 -26 -99 22 -59 70 -79 120 -53 13 7
19 7 19 0 0 -5 9 -10 20 -10 19 0 20 7 20 90 0 83 -1 90 -20 90 -11 0 -20 -5
-20 -10 0 -7 -6 -7 -19 0 -30 16 -76 12 -94 -8z m97 -38 c32 -31 8 -84 -38
-84 -29 0 -46 18 -46 50 0 14 5 31 12 38 17 17 54 15 72 -4z"/>
<path d="M22627 10969 c-11 -6 -25 -26 -33 -45 -26 -62 16 -124 83 -124 29 0
73 24 73 39 0 14 -33 22 -44 11 -14 -14 -49 -13 -64 2 -7 7 -12 24 -12 38 0
14 5 31 12 38 15 15 50 16 64 2 11 -11 44 -3 44 11 0 30 -85 50 -123 28z"/>
<path d="M22790 10907 c0 -59 4 -77 18 -90 22 -20 73 -22 90 -5 9 9 12 9 12 0
0 -7 9 -12 20 -12 19 0 20 7 20 90 0 83 -1 90 -20 90 -17 0 -20 -7 -20 -53 0
-63 -16 -90 -51 -85 -22 3 -24 7 -27 71 -3 59 -5 67 -22 67 -18 0 -20 -7 -20
-73z"/>
<path d="M23109 10954 c-68 -73 14 -190 102 -144 13 7 19 7 19 0 0 -5 9 -10
20 -10 19 0 20 7 20 90 0 83 -1 90 -20 90 -11 0 -20 -5 -20 -10 0 -7 -6 -7
-19 0 -34 18 -76 12 -102 -16z m107 -39 c15 -23 15 -27 0 -50 -10 -15 -26 -25
-41 -25 -15 0 -31 10 -41 25 -15 23 -15 27 0 50 10 15 26 25 41 25 15 0 31
-10 41 -25z"/>
<path d="M23487 10969 c-11 -6 -25 -26 -33 -45 -40 -95 84 -172 150 -93 15 17
26 43 26 59 0 16 -11 42 -26 59 -20 24 -34 31 -62 31 -21 0 -45 -5 -55 -11z
m89 -54 c15 -23 15 -27 0 -50 -29 -44 -86 -28 -86 25 0 53 57 69 86 25z"/>
<path d="M23670 10890 c0 -83 1 -90 20 -90 17 0 20 7 20 39 0 56 15 91 40 91
15 0 20 7 20 25 0 27 -18 33 -39 13 -11 -10 -14 -10 -18 0 -3 6 -13 12 -24 12
-17 0 -19 -8 -19 -90z"/>
<path d="M7950 5520 l0 -2960 100 0 100 0 0 2960 0 2960 -100 0 -100 0 0
-2960z"/>
<path d="M6450 5460 l0 -2900 95 0 95 0 0 2900 0 2900 -95 0 -95 0 0 -2900z"/>
<path d="M3440 5400 l0 -2840 95 0 95 0 0 2840 0 2840 -95 0 -95 0 0 -2840z"/>
<path d="M4940 5105 l0 -2545 100 0 100 0 0 2545 0 2545 -100 0 -100 0 0
-2545z"/>
<path d="M18490 4985 l0 -2425 95 0 95 0 0 2425 0 2425 -95 0 -95 0 0 -2425z"/>
<path d="M12470 4570 l0 -2010 95 0 95 0 0 2010 0 2010 -95 0 -95 0 0 -2010z"/>
<path d="M10960 3920 l0 -1360 100 0 100 0 0 1360 0 1360 -100 0 -100 0 0
-1360z"/>
<path d="M13970 3920 l0 -1360 100 0 100 0 0 1360 0 1360 -100 0 -100 0 0
-1360z"/>
<path d="M16980 3740 l0 -1180 100 0 100 0 0 1180 0 1180 -100 0 -100 0 0
-1180z"/>
<path d="M9460 3680 l0 -1120 95 0 95 0 0 1120 0 1120 -95 0 -95 0 0 -1120z"/>
<path d="M1930 3565 l0 -1005 100 0 100 0 0 1005 0 1005 -100 0 -100 0 0
-1005z"/>
<path d="M15480 3565 l0 -1005 95 0 95 0 0 1005 0 1005 -95 0 -95 0 0 -1005z"/>
<path d="M34166 3351 c-4 -5 -2 -12 3 -15 5 -4 12 -2 15 3 4 5 2 12 -3 15 -5
4 -12 2 -15 -3z"/>
<path d="M35760 3260 c0 -60 4 -100 10 -100 6 0 10 40 10 100 0 60 -4 100 -10
100 -6 0 -10 -40 -10 -100z"/>
<path d="M30786 3324 c-20 -20 -26 -36 -26 -68 1 -48 15 -71 55 -86 55 -21
105 6 119 63 6 26 5 27 -36 26 -30 -2 -35 -3 -15 -6 53 -8 23 -73 -34 -73 -60
0 -91 75 -53 128 13 19 25 23 58 22 57 -2 63 -1 46 10 -30 19 -86 11 -114 -16z"/>
<path d="M31460 3255 c0 -88 1 -95 20 -95 16 0 20 7 20 35 0 33 2 35 33 35 46
0 70 20 70 60 0 44 -24 60 -90 60 l-53 0 0 -95z m105 35 c0 -21 -5 -26 -32
-28 -31 -3 -33 -1 -33 28 0 29 2 31 33 28 27 -2 32 -7 32 -28z"/>
<path d="M31943 3255 c-37 -85 -39 -95 -22 -95 10 0 23 9 29 20 8 15 21 20 55
20 35 0 45 -4 50 -20 3 -11 15 -20 25 -20 18 0 16 7 -16 83 -20 45 -38 88 -41
95 -3 6 -13 12 -22 12 -13 0 -29 -27 -58 -95z m83 -22 c-2 -3 -15 -3 -29 -1
-25 3 -25 4 -11 38 l15 35 15 -34 c8 -19 12 -36 10 -38z"/>
<path d="M31110 3321 c0 -11 -6 -22 -12 -24 -10 -4 -10 -7 -1 -14 6 -5 13 -30
15 -57 3 -53 22 -75 54 -61 17 7 17 8 -6 14 -22 6 -25 13 -28 54 -3 45 -2 47
22 47 15 0 26 5 26 10 0 6 -11 10 -25 10 -18 0 -25 5 -25 20 0 11 -4 20 -10
20 -5 0 -10 -9 -10 -19z"/>
<path d="M32830 3320 c0 -11 -4 -20 -10 -20 -5 0 -10 -7 -10 -15 0 -8 5 -15
10 -15 6 0 10 -16 10 -36 0 -51 15 -74 50 -74 20 0 30 5 30 15 0 8 -9 15 -20
15 -17 0 -20 7 -20 40 0 33 3 40 20 40 11 0 20 7 20 15 0 8 -9 15 -20 15 -13
0 -20 7 -20 20 0 13 -7 20 -20 20 -13 0 -20 -7 -20 -20z"/>
<path d="M33000 3321 c0 -11 -6 -22 -12 -24 -10 -4 -10 -7 -1 -14 6 -5 13 -30
15 -57 3 -53 22 -75 54 -61 17 7 17 8 -6 14 -22 6 -25 13 -28 54 -3 42 -1 47
17 47 12 0 21 5 21 10 0 6 -9 10 -20 10 -13 0 -20 7 -20 20 0 11 -4 20 -10 20
-5 0 -10 -9 -10 -19z"/>
<path d="M33430 3321 c0 -11 -6 -22 -12 -24 -10 -4 -10 -7 -1 -14 6 -5 13 -30
15 -57 3 -53 22 -75 54 -61 17 7 17 8 -6 14 -22 6 -25 13 -28 54 -3 42 -1 47
17 47 12 0 21 5 21 10 0 6 -9 10 -20 10 -13 0 -20 7 -20 20 0 11 -4 20 -10 20
-5 0 -10 -9 -10 -19z"/>
<path d="M33750 3322 c0 -19 -72 -48 -78 -31 -2 5 -8 9 -13 9 -5 0 -9 -31 -9
-70 0 -40 4 -70 10 -70 6 0 10 22 10 50 0 52 15 70 59 70 19 0 21 -6 21 -54 0
-40 4 -55 16 -60 24 -9 44 -7 44 4 0 6 -9 10 -20 10 -17 0 -20 7 -20 50 0 43
3 50 20 50 11 0 20 5 20 10 0 6 -9 10 -20 10 -13 0 -20 7 -20 20 0 11 -4 20
-10 20 -5 0 -10 -8 -10 -18z"/>
<path d="M30982 3283 c-35 -30 -38 -68 -8 -97 28 -29 53 -33 82 -12 17 13 15
14 -23 9 -35 -5 -43 -2 -52 16 -11 20 -10 21 44 21 46 0 55 3 55 18 0 23 -10
37 -37 51 -29 15 -37 14 -61 -6z m68 -18 c17 -21 4 -35 -34 -35 -40 0 -48 7
-35 31 12 23 52 25 69 4z"/>
<path d="M31283 3293 c-24 -9 -13 -20 16 -15 22 3 32 -1 40 -17 11 -19 9 -21
-23 -21 -32 0 -66 -20 -66 -40 0 -12 29 -40 41 -40 6 0 20 5 32 11 16 9 22 9
25 0 2 -6 8 -11 14 -11 7 0 9 21 6 56 -6 71 -35 98 -85 77z m56 -72 c11 -7 9
-13 -8 -30 -17 -17 -25 -19 -41 -11 -25 13 -25 26 -2 39 21 13 33 13 51 2z"/>
<path d="M31620 3228 c0 -61 2 -68 20 -68 17 0 20 7 20 49 0 40 4 51 19 56 11
3 22 12 24 19 4 11 -5 14 -39 14 l-44 -1 0 -69z"/>
<path d="M31721 3274 c-12 -15 -21 -34 -21 -44 0 -34 39 -70 75 -70 36 0 75
36 75 70 0 34 -39 70 -75 70 -24 0 -39 -7 -54 -26z m84 -44 c0 -32 -2 -35 -30
-35 -24 0 -31 5 -33 23 -6 38 5 54 35 50 25 -3 28 -7 28 -38z"/>
<path d="M32123 3285 c-32 -23 -32 -87 -1 -109 25 -18 65 -21 88 -6 20 12 6
24 -32 24 -64 2 -63 68 1 74 19 2 31 8 28 15 -6 18 -59 20 -84 2z"/>
<path d="M32245 3280 c-41 -45 -10 -120 49 -120 40 0 64 14 45 26 -8 5 -23 7
-35 6 -28 -4 -48 22 -40 53 5 21 12 25 42 25 47 0 41 24 -7 28 -25 2 -40 -3
-54 -18z"/>
<path d="M32370 3280 c-45 -45 -11 -120 53 -120 42 0 70 29 70 70 0 63 -78 95
-123 50z m86 -35 c12 -48 -44 -77 -66 -35 -15 28 4 60 35 60 18 0 26 -7 31
-25z"/>
<path d="M32510 3247 c0 -68 17 -86 83 -85 l47 1 0 69 c0 54 -3 68 -15 68 -11
0 -15 -11 -15 -42 0 -52 -11 -71 -36 -66 -15 2 -20 14 -22 56 -3 44 -6 52 -23
52 -16 0 -19 -7 -19 -53z"/>
<path d="M32670 3228 c0 -53 3 -68 14 -68 11 0 16 15 18 53 3 46 6 52 27 55
30 5 41 -12 41 -65 0 -32 4 -43 15 -43 11 0 15 13 15 54 0 70 -14 85 -80 84
l-50 -1 0 -69z"/>
<path d="M33112 3288 c-47 -23 -39 -105 11 -122 45 -16 81 9 85 60 2 25 -2 45
-10 52 -21 17 -61 22 -86 10z m66 -20 c7 -7 12 -24 12 -38 0 -31 -17 -50 -45
-50 -28 0 -45 19 -45 50 0 31 17 50 45 50 12 0 26 -5 33 -12z"/>
<path d="M33318 3289 c-30 -17 -21 -46 20 -66 46 -22 44 -36 -5 -44 -37 -5
-37 -6 -11 -13 32 -10 64 -1 72 20 8 22 -1 34 -41 50 -42 18 -38 37 8 44 27 4
30 7 16 13 -24 9 -38 9 -59 -4z"/>
<path d="M33538 3293 c-28 -7 -21 -21 7 -15 25 4 55 -12 55 -29 0 -5 -12 -9
-26 -9 -38 0 -64 -18 -64 -45 0 -29 30 -41 62 -24 16 9 23 9 26 0 9 -28 22 -6
22 39 0 70 -27 97 -82 83z m52 -73 c13 -9 12 -13 -8 -30 -26 -22 -52 -17 -52
10 0 27 33 38 60 20z"/>
<path d="M33900 3242 c0 -57 2 -63 26 -74 20 -9 30 -9 47 1 15 10 22 11 25 2
2 -6 8 -11 13 -11 12 0 12 127 -1 135 -6 4 -10 -11 -10 -37 0 -55 -18 -81 -51
-76 -21 3 -24 9 -27 53 -5 75 -22 81 -22 7z"/>
<path d="M34055 3284 c-22 -22 -15 -36 28 -57 48 -24 48 -45 0 -49 -31 -3 -34
-6 -19 -12 28 -13 70 5 74 32 3 18 -4 26 -32 37 -45 19 -48 45 -5 45 17 0 28
4 24 10 -10 16 -52 12 -70 -6z"/>
<path d="M34170 3231 c0 -41 4 -71 10 -71 6 0 10 28 10 64 0 36 -4 68 -10 71
-6 4 -10 -20 -10 -64z"/>
<path d="M34220 3230 c0 -40 4 -70 10 -70 6 0 10 22 10 49 0 54 15 74 52 69
21 -3 23 -9 26 -60 4 -76 22 -75 22 2 0 50 -3 61 -21 71 -16 8 -28 8 -47 -1
-19 -8 -28 -8 -30 -1 -2 6 -8 11 -13 11 -5 0 -9 -31 -9 -70z"/>
<path d="M34410 3293 c-43 -15 -53 -80 -19 -114 20 -20 41 -21 81 -4 13 5 15
2 11 -15 -8 -29 -39 -43 -80 -35 -21 4 -33 3 -29 -3 16 -26 100 -18 118 11 4
7 8 48 8 92 0 48 -4 75 -9 66 -6 -10 -13 -11 -29 -2 -22 12 -29 12 -52 4z m58
-25 c7 -7 12 -24 12 -38 0 -31 -17 -50 -45 -50 -28 0 -45 19 -45 50 0 31 17
50 45 50 12 0 26 -5 33 -12z"/>
<path d="M34618 3289 c-30 -17 -22 -48 17 -65 47 -19 46 -42 -2 -46 l-38 -4
29 -8 c35 -11 60 2 64 33 3 17 -5 25 -32 36 -49 21 -48 45 2 45 27 0 33 3 22
10 -19 12 -40 12 -62 -1z"/>
<path d="M34720 3246 c0 -36 5 -60 16 -70 19 -19 45 -21 63 -3 11 10 14 10 18
0 12 -33 23 -6 23 57 0 40 -4 70 -10 70 -5 0 -10 -22 -10 -49 0 -54 -15 -74
-52 -69 -21 3 -23 9 -26 61 -4 72 -22 75 -22 3z"/>
<path d="M34870 3205 c0 -57 4 -95 10 -95 6 0 10 16 10 36 0 31 3 35 18 29 58
-25 102 -2 102 54 0 37 -43 74 -74 65 -38 -11 -40 -23 -3 -17 32 5 38 3 48
-21 17 -36 -2 -76 -35 -76 -33 0 -59 27 -52 54 6 26 -3 66 -15 66 -5 0 -9 -43
-9 -95z"/>
<path d="M35070 3293 c-42 -15 -54 -79 -20 -113 23 -23 62 -26 80 -5 10 12 6
13 -25 8 -26 -4 -40 -2 -46 8 -16 25 -10 29 41 29 46 0 50 2 50 24 0 38 -42
63 -80 49z m58 -40 c3 -21 -1 -23 -37 -23 -27 0 -41 4 -41 13 0 41 72 50 78
10z"/>
<path d="M35180 3230 c0 -40 4 -70 10 -70 6 0 10 23 10 50 0 44 3 52 25 62 14
6 25 15 25 20 0 5 -10 3 -22 -3 -16 -9 -23 -9 -26 0 -2 6 -8 11 -13 11 -5 0
-9 -31 -9 -70z"/>
<path d="M35346 3279 c-26 -20 -35 -61 -18 -85 13 -20 54 -36 78 -30 37 10 29
23 -11 18 -29 -4 -36 0 -46 22 -18 39 2 78 39 76 41 -3 48 -1 32 10 -23 15
-45 12 -74 -11z"/>
<path d="M35480 3287 c-21 -11 -25 -20 -25 -57 0 -38 4 -46 27 -59 20 -12 34
-13 55 -5 52 18 57 100 8 122 -32 15 -34 15 -65 -1z m68 -19 c7 -7 12 -24 12
-38 0 -31 -17 -50 -45 -50 -28 0 -45 19 -45 50 0 31 17 50 45 50 12 0 26 -5
33 -12z"/>
<path d="M35627 3280 c-36 -29 -36 -71 -1 -99 33 -26 55 -26 85 -3 26 22 31
75 8 97 -26 26 -63 28 -92 5z m78 -24 c16 -23 11 -54 -9 -68 -24 -16 -57 -8
-68 17 -27 59 42 105 77 51z"/>
<path d="M32850 2946 c0 -9 5 -16 10 -16 6 0 10 4 10 9 0 6 -4 13 -10 16 -5 3
-10 -1 -10 -9z"/>
<path d="M32230 2855 c0 -57 4 -95 10 -95 6 0 10 15 10 34 0 31 3 34 39 40 39
6 71 35 71 63 0 29 -39 53 -85 53 l-45 0 0 -95z m98 58 c18 -35 -5 -63 -50
-63 -26 0 -28 3 -28 40 0 39 1 40 35 40 23 0 37 -6 43 -17z"/>
<path d="M33370 2855 c0 -57 4 -95 10 -95 6 0 10 18 10 40 0 39 1 40 35 40 19
0 35 5 35 10 0 6 -16 10 -35 10 -33 0 -35 2 -35 35 0 34 1 35 40 35 22 0 40 5
40 10 0 6 -22 10 -50 10 l-50 0 0 -95z"/>
<path d="M33780 2921 c0 -11 -6 -22 -12 -24 -10 -4 -10 -7 -1 -14 6 -5 13 -30
15 -57 3 -53 22 -75 54 -61 17 7 17 8 -6 14 -22 6 -25 13 -28 54 -3 42 -1 47
17 47 12 0 21 5 21 10 0 6 -9 10 -20 10 -13 0 -20 7 -20 20 0 11 -4 20 -10 20
-5 0 -10 -9 -10 -19z"/>
<path d="M32380 2830 c0 -40 4 -70 10 -70 6 0 10 23 10 50 0 44 3 52 25 62 14
6 25 15 25 20 0 5 -10 3 -22 -3 -16 -9 -23 -9 -26 0 -2 6 -8 11 -13 11 -5 0
-9 -31 -9 -70z"/>
<path d="M32482 2883 c-35 -30 -38 -68 -8 -97 28 -29 53 -33 82 -12 17 13 15
14 -23 9 -35 -5 -43 -2 -52 16 -11 20 -10 21 44 21 46 0 55 3 55 18 0 23 -10
37 -37 51 -29 15 -37 14 -61 -6z m68 -18 c17 -21 4 -35 -34 -35 -40 0 -48 7
-35 31 12 23 52 25 69 4z"/>
<path d="M32610 2833 c0 -42 4 -73 10 -73 6 0 10 25 10 55 0 42 4 57 16 62 31
12 49 -11 52 -66 4 -65 22 -67 22 -3 0 50 12 72 41 72 24 0 30 -12 39 -74 l8
-51 1 62 c1 54 -2 64 -20 73 -15 9 -28 9 -49 0 -21 -9 -34 -9 -49 0 -16 8 -27
8 -42 -1 -17 -9 -23 -8 -30 2 -5 9 -9 -14 -9 -58z"/>
<path d="M32850 2830 c0 -40 4 -70 10 -70 6 0 10 30 10 70 0 40 -4 70 -10 70
-6 0 -10 -30 -10 -70z"/>
<path d="M32900 2847 c0 -69 25 -97 71 -80 16 6 29 7 29 2 0 -5 5 -9 10 -9 6
0 10 30 10 70 0 40 -4 70 -10 70 -5 0 -10 -20 -10 -44 0 -59 -8 -76 -34 -76
-34 0 -46 19 -46 72 0 26 -4 48 -10 48 -5 0 -10 -24 -10 -53z"/>
<path d="M33050 2830 c0 -81 17 -95 22 -19 3 59 25 82 56 63 12 -8 18 -27 20
-63 4 -69 20 -65 24 7 3 56 3 57 33 57 30 0 30 -1 33 -57 4 -73 22 -76 22 -4
0 36 -5 60 -16 70 -18 19 -25 20 -57 5 -18 -8 -30 -8 -46 0 -16 9 -26 9 -43 0
-16 -9 -23 -9 -26 0 -2 6 -8 11 -13 11 -5 0 -9 -31 -9 -70z"/>
<path d="M33513 2885 c-32 -23 -32 -87 -1 -109 28 -20 48 -20 73 -3 16 12 13
14 -26 13 -34 -1 -44 3 -47 17 -3 14 4 17 47 17 43 0 51 3 51 18 0 46 -59 74
-97 47z m65 -17 c24 -24 13 -38 -28 -38 -40 0 -45 5 -34 34 7 19 45 21 62 4z"/>
<path d="M33658 2893 c-31 -8 -20 -18 19 -18 28 0 38 -5 41 -17 3 -14 -3 -18
-23 -18 -54 0 -84 -37 -53 -68 15 -15 45 -15 54 0 4 6 3 8 -4 5 -16 -11 -42 3
-42 23 0 11 10 20 25 24 31 8 48 -1 41 -20 -7 -17 3 -44 15 -44 5 0 9 24 9 54
0 45 -4 58 -22 70 -23 16 -29 17 -60 9z"/>
<path d="M33866 2887 c-12 -26 0 -97 18 -116 13 -13 21 -13 46 -4 17 6 30 7
30 2 0 -5 5 -9 10 -9 6 0 10 30 10 70 0 84 -18 94 -22 13 -3 -52 -5 -58 -27
-61 -33 -5 -45 11 -51 71 -5 38 -9 47 -14 34z"/>
<path d="M34020 2830 c0 -81 18 -95 22 -17 2 43 7 54 26 62 30 13 28 27 -3 15
-16 -6 -25 -6 -25 0 0 6 -4 10 -10 10 -6 0 -10 -30 -10 -70z"/>
<path d="M34125 2888 c-27 -15 -35 -28 -35 -60 0 -55 63 -86 106 -53 18 14 16
15 -19 9 -24 -4 -43 -2 -52 6 -27 22 -16 30 41 30 53 0 55 1 49 23 -7 24 -41
57 -59 57 -6 0 -20 -6 -31 -12z m64 -27 c13 -24 5 -31 -35 -31 -38 0 -51 14
-34 35 17 21 57 19 69 -4z"/>
<path d="M34258 2889 c-30 -17 -22 -48 17 -65 47 -19 46 -42 -2 -46 l-38 -4
29 -8 c35 -11 60 2 64 33 3 17 -5 25 -32 36 -49 21 -48 45 2 45 27 0 33 3 22
10 -19 12 -40 12 -62 -1z"/>
<path d="M32411 2338 c-254 -97 -252 -481 2 -577 57 -21 64 -21 857 -21 793 0
800 0 857 21 76 29 143 96 172 172 61 165 -17 347 -172 406 -57 21 -64 21
-860 20 -789 0 -803 0 -856 -21z m329 -268 l0 -70 35 0 c25 0 35 -4 35 -16 0
-12 -10 -14 -47 -12 l-48 3 -3 69 c-3 73 1 96 18 96 6 0 10 -29 10 -70z m170
10 c11 -11 20 -29 20 -40 0 -17 -7 -20 -46 -20 -30 0 -43 -4 -38 -11 4 -7 21
-9 40 -6 19 3 34 2 34 -3 0 -12 -34 -30 -54 -30 -24 0 -56 37 -56 65 0 30 32
65 60 65 11 0 29 -9 40 -20z m110 10 c9 -6 17 -5 21 2 14 23 29 -6 29 -57 0
-51 -15 -80 -29 -57 -4 7 -12 8 -21 2 -8 -6 -21 -10 -27 -10 -22 0 -53 39 -53
65 0 26 31 65 53 65 6 0 19 -4 27 -10z m224 -9 c12 -10 16 -26 14 -58 -4 -57
-22 -56 -26 2 -3 41 -6 46 -25 43 -18 -2 -23 -11 -27 -48 -7 -60 -24 -53 -28
10 -3 46 -5 49 -23 40 -14 -8 -19 -21 -19 -56 0 -32 -4 -44 -12 -42 -13 4 -24
89 -15 112 7 17 140 14 161 -3z m161 8 c3 -4 17 -3 30 3 39 18 67 -13 63 -69
-4 -57 -22 -56 -26 2 -3 36 -7 45 -22 45 -15 0 -19 -9 -22 -47 -2 -27 -7 -48
-13 -48 -5 0 -11 21 -13 48 -3 38 -7 47 -22 47 -15 0 -19 -9 -22 -47 -2 -26
-9 -48 -15 -51 -10 -3 -13 14 -13 60 l0 64 35 1 c19 1 37 -3 40 -8z m210 -14
c14 -13 25 -31 25 -40 0 -20 -44 -65 -63 -65 -25 0 -67 41 -67 65 0 24 42 65
67 65 8 0 25 -11 38 -25z m95 8 c0 -7 -7 -13 -14 -13 -11 0 -16 -14 -18 -47
-2 -26 -9 -48 -15 -51 -10 -3 -13 14 -13 61 l0 64 30 -1 c17 -1 30 -7 30 -13z
m94 -4 c25 -19 36 -59 17 -59 -5 0 -8 -8 -7 -17 2 -28 -47 -40 -78 -19 -34 22
-36 78 -4 100 29 21 40 20 72 -5z"/>
<path d="M32845 2060 c-4 -6 7 -10 25 -10 18 0 29 4 25 10 -3 6 -15 10 -25 10
-10 0 -22 -4 -25 -10z"/>
<path d="M32971 2051 c-13 -24 8 -55 34 -50 28 6 42 34 26 53 -18 22 -48 20
-60 -3z"/>
<path d="M33544 2056 c-12 -31 0 -51 31 -51 27 0 30 3 30 30 0 25 -4 30 -28
33 -17 2 -29 -2 -33 -12z"/>
<path d="M33745 2060 c-4 -6 7 -10 25 -10 18 0 29 4 25 10 -3 6 -15 10 -25 10
-10 0 -22 -4 -25 -10z"/>
<path d="M33745 2010 c3 -5 15 -10 25 -10 10 0 22 5 25 10 4 6 -7 10 -25 10
-18 0 -29 -4 -25 -10z"/>
<path d="M2320 1908 c-1 -2 -2 -40 -3 -86 -2 -67 1 -82 13 -82 12 0 14 15 12
85 -2 47 -8 85 -13 85 -5 0 -9 -1 -9 -2z"/>
<path d="M3789 1888 c-12 -22 -11 -23 8 -5 41 36 78 -12 48 -61 -10 -15 -29
-39 -43 -54 l-26 -28 51 0 c32 0 53 5 56 13 3 9 -6 11 -35 9 l-40 -4 36 47
c20 25 36 54 36 64 0 44 -70 58 -91 19z"/>
<path d="M5299 1893 c-11 -15 -11 -16 1 -5 35 31 78 -2 46 -36 -14 -17 -14
-19 5 -36 13 -11 19 -25 16 -37 -7 -25 -1 -24 13 2 9 16 8 26 -5 45 -12 19
-13 29 -5 38 5 8 8 21 4 30 -8 22 -58 21 -75 -1z"/>
<path d="M6839 1878 c-23 -33 -23 -33 -1 -14 l22 19 0 -41 c0 -40 -1 -42 -30
-42 -30 0 -37 7 -22 26 4 5 -1 1 -10 -9 -24 -25 -14 -37 28 -37 27 0 34 -4 34
-20 0 -11 5 -20 10 -20 6 0 10 9 10 19 0 11 6 22 13 25 10 5 10 7 0 12 -8 3
-13 26 -13 60 0 30 -4 54 -9 54 -5 0 -20 -15 -32 -32z"/>
<path d="M8316 1883 c-14 -27 -13 -29 16 -43 64 -31 63 -87 -1 -84 -17 1 -31
-2 -31 -7 0 -16 56 -9 73 9 32 36 25 78 -18 99 -39 19 -37 33 6 33 16 0 29 5
29 10 0 6 -13 10 -30 10 -22 0 -33 -7 -44 -27z"/>
<path d="M9835 1888 c-34 -30 -44 -88 -21 -123 20 -30 56 -33 79 -7 33 36 13
92 -31 91 -25 0 -26 -1 -5 -9 40 -16 42 -90 3 -90 -46 0 -48 87 -4 135 29 31
14 33 -21 3z"/>
<path d="M11310 1900 c0 -5 18 -10 40 -10 22 0 40 -1 40 -3 0 -2 -11 -36 -24
-75 -14 -40 -21 -72 -17 -72 4 0 18 33 30 73 13 39 26 78 28 85 4 8 -9 12 -46
12 -28 0 -51 -4 -51 -10z"/>
<path d="M12827 1903 c-11 -11 -8 -48 5 -61 9 -9 9 -15 0 -24 -18 -18 -15 -65
4 -72 9 -4 19 -4 22 -1 3 3 1 5 -5 5 -17 0 -24 29 -13 51 9 15 15 17 30 9 22
-12 28 -60 8 -60 -6 0 -8 -3 -5 -6 11 -11 37 17 37 39 0 11 -7 28 -15 37 -14
15 -14 18 0 30 19 15 19 34 1 49 -11 9 -12 7 -9 -12 3 -13 -2 -29 -10 -36 -13
-10 -18 -8 -31 10 -11 17 -13 26 -4 36 11 13 -3 19 -15 6z"/>
<path d="M14333 1898 c-29 -38 -14 -98 24 -98 14 0 14 2 -2 20 -12 13 -16 30
-13 55 4 39 4 40 -9 23z"/>
<path d="M14390 1891 c12 -24 13 -71 1 -71 -5 0 -7 -8 -4 -19 3 -12 -5 -26
-23 -40 -14 -11 -21 -21 -15 -21 7 0 26 13 42 29 21 22 29 39 29 66 0 39 -15
75 -31 75 -6 0 -6 -7 1 -19z"/>
<path d="M15800 1908 c-1 -2 -2 -40 -3 -86 -2 -67 1 -82 13 -82 12 0 14 15 12
85 -2 47 -8 85 -13 85 -5 0 -9 -1 -9 -2z"/>
<path d="M15901 1896 c-31 -37 -20 -136 16 -151 14 -5 14 -3 2 11 -17 21 -17
117 0 138 7 9 9 16 3 16 -5 0 -15 -6 -21 -14z"/>
<path d="M15958 1898 c7 -7 12 -39 12 -75 0 -48 -4 -64 -17 -72 -10 -6 -13
-11 -7 -11 22 0 45 39 47 78 1 42 -19 92 -37 92 -6 0 -5 -5 2 -12z"/>
<path d="M17310 1908 c-1 -2 -2 -40 -3 -86 -2 -67 1 -82 13 -82 12 0 14 15 12
85 -2 47 -8 85 -13 85 -5 0 -9 -1 -9 -2z"/>
<path d="M17435 1902 c-5 -4 -10 -42 -10 -85 0 -62 3 -77 15 -77 13 0 15 13
12 73 -4 93 -5 98 -17 89z"/>
<path d="M18810 1908 c-1 -2 -2 -40 -3 -86 -2 -67 1 -82 13 -82 12 0 14 15 12
85 -2 47 -8 85 -13 85 -5 0 -9 -1 -9 -2z"/>
<path d="M18912 1898 c-7 -7 -12 -16 -12 -21 0 -5 7 -1 16 7 44 44 79 -28 38
-77 l-19 -22 24 20 c51 43 47 105 -7 105 -16 0 -33 -5 -40 -12z"/>
<path d="M18960 1763 c-65 -6 -75 -23 -13 -23 36 0 53 4 57 15 3 8 4 14 3 13
-1 -1 -22 -3 -47 -5z"/>
<path d="M5290 1750 c0 -5 14 -10 32 -10 36 0 35 4 -4 14 -17 4 -28 2 -28 -4z"/>
</g>
</svg>
