<?xml version="1.0" standalone="no"?>
<!DOCTYPE svg PUBLIC "-//W3C//DTD SVG 20010904//EN"
 "http://www.w3.org/TR/2001/REC-SVG-20010904/DTD/svg10.dtd">
<svg version="1.0" xmlns="http://www.w3.org/2000/svg"
 width="1143.000000pt" height="977.000000pt" viewBox="0 0 1143.000000 977.000000"
 preserveAspectRatio="xMidYMid meet">

<g transform="translate(0.000000,977.000000) scale(0.100000,-0.100000)"
fill="#000000" stroke="none">
<path d="M6895 9510 c-233 -48 -405 -256 -405 -489 0 -226 157 -429 377 -486
94 -25 221 -17 304 19 14 6 13 -3 -6 -71 -59 -205 -29 -433 80 -613 52 -85
153 -188 239 -245 42 -27 76 -53 76 -58 0 -7 -73 -264 -156 -549 -4 -15 -17
-18 -73 -18 -88 0 -167 -21 -270 -71 -109 -54 -220 -161 -274 -265 -40 -78
-77 -213 -77 -284 l0 -45 -217 -54 c-120 -30 -222 -56 -228 -58 -5 -1 -26 27
-45 64 -46 88 -181 226 -275 281 -283 165 -636 136 -886 -72 l-64 -53 -155
105 c-85 58 -159 109 -163 113 -5 4 0 44 12 90 75 296 -66 601 -339 732 -52
25 -122 51 -154 56 -348 63 -668 -145 -751 -488 -24 -100 -17 -249 17 -341
l24 -65 -170 -127 -170 -127 -37 33 c-56 51 -166 112 -254 142 -64 21 -106 27
-208 31 -159 7 -231 -8 -374 -78 -120 -59 -227 -152 -295 -255 -23 -35 -46
-64 -51 -64 -4 0 -48 12 -98 27 l-89 27 0 41 c0 112 -58 245 -146 332 -113
114 -271 168 -421 145 -418 -65 -578 -577 -269 -859 217 -198 539 -173 729 56
l29 35 91 -30 92 -30 1 -75 c3 -128 14 -201 44 -288 108 -308 388 -510 717
-514 l111 -2 67 -215 c37 -118 68 -218 69 -221 0 -3 -28 -28 -64 -55 -81 -61
-151 -148 -195 -239 -46 -98 -60 -164 -59 -285 1 -87 6 -119 28 -185 27 -80
68 -155 112 -208 l23 -27 -175 -244 -176 -243 -56 23 c-187 75 -412 69 -600
-17 -122 -55 -242 -158 -322 -273 l-34 -50 -17 52 c-10 28 -32 73 -50 98 -180
262 -541 300 -764 80 -157 -156 -194 -381 -94 -585 76 -154 265 -271 439 -271
44 0 149 20 182 34 14 7 16 -3 16 -86 -1 -230 132 -408 360 -483 81 -26 235
-18 321 17 61 26 65 26 130 12 124 -26 312 -12 415 31 20 8 39 15 44 15 5 0
25 -24 45 -54 l36 -54 -19 -25 c-59 -75 -100 -196 -100 -297 0 -222 143 -418
352 -481 58 -18 88 -21 174 -17 97 4 109 7 187 46 90 44 172 120 220 202 31
54 67 179 67 235 0 210 -140 413 -333 481 -89 32 -223 36 -308 9 -14 -5 -26 7
-55 50 l-37 55 40 48 c94 113 149 222 178 356 49 221 -24 499 -171 656 l-33
35 169 234 c94 129 173 238 178 243 4 4 37 -2 72 -14 52 -17 91 -22 190 -22
112 -1 134 2 205 27 200 68 367 246 416 440 l11 47 233 0 234 0 16 -57 c99
-341 391 -562 742 -563 125 0 227 24 342 82 l96 48 122 -127 122 -127 -18 -25
c-38 -54 -81 -151 -99 -227 -67 -268 -2 -524 181 -721 53 -56 179 -152 219
-165 8 -3 -7 -73 -51 -235 l-64 -231 -82 -10 c-106 -14 -182 -41 -262 -93
-247 -161 -332 -478 -201 -748 45 -92 169 -215 262 -260 182 -87 387 -78 562
24 113 66 223 215 259 351 17 66 20 217 4 284 -28 123 -139 280 -245 347 -28
18 -42 33 -39 43 2 8 27 98 55 200 28 102 55 199 61 216 l10 31 107 6 c126 6
198 24 307 77 154 74 272 195 350 355 52 108 75 205 75 319 0 48 3 86 6 86 5
0 399 105 434 115 11 3 29 -16 58 -59 175 -267 533 -362 819 -218 l59 30 203
-209 202 -209 -21 -30 c-38 -53 -87 -173 -105 -254 -27 -121 -18 -293 22 -408
39 -112 108 -222 190 -303 89 -88 83 -98 -63 -100 -164 -3 -271 -49 -371 -159
-123 -134 -163 -328 -103 -500 68 -198 262 -336 470 -336 272 0 500 230 500
503 0 108 -49 239 -119 319 -38 43 -40 52 -17 85 1 1 26 -5 56 -14 37 -10 99
-16 191 -17 l136 -1 47 -43 c103 -95 265 -145 404 -124 354 54 543 453 357
753 -33 53 -99 123 -141 149 -28 18 -31 25 -43 111 -6 50 -10 93 -8 95 2 2 19
-8 38 -22 159 -119 365 -137 542 -48 72 37 177 145 211 218 15 32 35 93 43
135 56 269 -139 540 -419 582 -294 44 -567 -192 -568 -490 l0 -63 -81 76 c-65
61 -103 87 -183 126 -123 59 -213 80 -344 80 -125 0 -228 -25 -345 -84 l-89
-44 -202 205 -202 206 33 63 c125 235 83 537 -102 732 -35 37 -86 81 -114 97
-28 17 -51 32 -51 35 0 3 29 106 64 230 l63 225 119 6 c92 5 137 12 199 33
205 70 360 204 450 391 54 110 74 186 82 310 l6 95 36 10 c20 5 115 30 211 55
96 25 182 48 191 50 10 4 23 -9 39 -37 36 -65 139 -160 217 -201 217 -114 484
-82 661 78 79 72 127 145 162 246 25 70 30 100 30 179 0 174 -50 299 -165 416
-114 114 -254 174 -408 174 -103 0 -167 -15 -264 -61 -95 -45 -188 -131 -242
-223 -41 -69 -81 -200 -81 -265 l0 -46 -232 -60 c-148 -37 -233 -55 -235 -48
-2 6 -20 37 -39 69 -185 308 -571 447 -907 327 -40 -14 -97 -39 -127 -56 l-54
-31 -163 169 c-120 124 -160 171 -153 181 6 6 24 39 40 72 82 171 80 385 -7
560 -42 86 -137 194 -214 244 -27 17 -49 38 -49 47 0 9 36 138 79 286 l78 270
109 6 c133 8 214 28 319 79 206 102 353 288 408 519 21 89 21 89 57 95 82 14
86 12 126 -64 84 -160 253 -260 439 -260 136 0 254 50 351 146 239 238 173
646 -130 794 -91 44 -192 65 -271 55 -196 -25 -358 -153 -421 -333 l-23 -67
-64 -3 -64 -3 -27 73 c-45 125 -137 255 -230 328 -28 21 -45 43 -46 56 0 35
-38 135 -70 185 -167 259 -536 308 -758 100 l-50 -46 -33 75 c-90 201 -329
324 -544 280z m188 -45 c158 -33 298 -159 342 -307 14 -47 13 -50 -15 -110
-16 -34 -34 -85 -40 -114 -9 -43 -15 -52 -28 -48 -15 5 -15 4 1 -6 28 -18 20
-57 -25 -113 -24 -29 -50 -63 -59 -76 -15 -24 -16 -24 -42 -6 -32 21 -35 10
-6 -21 l20 -22 -21 -20 c-49 -46 -200 -72 -302 -53 -135 27 -268 125 -325 242
-28 55 -53 152 -53 200 0 214 155 409 363 454 81 18 108 18 190 0z m906 -194
c84 -26 137 -60 199 -125 101 -107 147 -257 118 -393 -47 -227 -222 -373 -445
-373 -184 0 -336 95 -413 257 -84 177 -49 381 88 519 118 118 297 164 453 115z
m1482 -493 c174 -86 269 -253 256 -446 -5 -68 -13 -97 -43 -160 -157 -326
-599 -352 -796 -48 -21 32 -38 67 -38 76 0 15 -8 17 -45 14 -148 -13 -135 -14
-124 13 13 35 10 132 -5 175 -16 45 -12 48 80 48 43 0 66 4 68 13 48 165 154
285 301 336 49 18 79 21 166 19 99 -3 110 -6 180 -40z m-8096 -2063 c191 -53
338 -265 322 -465 -5 -63 -5 -64 10 -35 9 17 17 31 18 32 1 2 110 -32 162 -52
9 -3 7 -16 -8 -49 -11 -25 -28 -77 -37 -115 l-18 -69 -84 27 c-84 27 -85 28
-83 60 l1 32 -27 -43 c-104 -163 -297 -246 -483 -207 -234 49 -395 282 -358
516 45 278 310 444 585 368z m3315 -384 c85 -57 156 -104 157 -105 0 -1 -10
-34 -23 -75 -112 -331 19 -705 311 -890 39 -25 72 -46 74 -48 4 -2 -23 -103
-79 -294 l-20 -65 -57 4 c-82 6 -235 -23 -323 -61 -229 -99 -400 -300 -451
-529 l-12 -58 -76 0 c-42 0 -146 -3 -232 -7 l-156 -6 -22 64 c-63 190 -225
351 -411 410 -36 12 -108 23 -162 26 l-97 6 -20 61 c-11 34 -41 129 -67 211
-25 83 -48 155 -51 161 -2 6 23 27 56 48 159 97 292 286 334 471 36 158 29
283 -24 438 -17 49 -29 90 -27 92 2 1 76 57 166 123 l164 121 46 -33 c160
-114 355 -153 536 -106 87 22 192 74 251 124 22 19 45 31 50 28 6 -4 80 -54
165 -111z m2114 -303 c44 -78 158 -187 243 -231 185 -97 387 -102 577 -14 l69
32 159 -165 c87 -90 158 -167 158 -171 0 -3 -16 -33 -35 -65 -78 -129 -109
-258 -102 -424 5 -134 32 -229 100 -350 52 -92 179 -222 264 -270 34 -19 62
-39 63 -45 0 -5 -28 -109 -63 -230 l-62 -220 -85 -6 c-153 -10 -281 -65 -392
-167 -125 -116 -194 -259 -207 -432 l-6 -75 -226 -60 -226 -61 -24 44 c-144
273 -472 438 -780 393 -94 -14 -224 -59 -281 -96 -21 -14 -41 -25 -45 -25 -5
0 -63 55 -130 123 l-122 122 38 62 c87 141 125 343 97 510 -38 222 -178 433
-354 533 -34 19 -62 40 -62 45 0 6 22 87 48 180 l49 170 124 7 c191 10 344 72
479 196 153 139 235 313 249 526 l6 99 220 58 c121 31 222 58 225 58 3 1 18
-23 34 -51z m-5791 -2898 c83 -31 167 -97 215 -170 42 -62 89 -190 78 -209 -4
-5 -23 -7 -43 -4 -26 4 -34 3 -29 -5 4 -7 15 -12 25 -12 10 0 20 -2 22 -5 3
-2 -4 -42 -15 -89 -21 -84 -46 -126 -74 -126 -9 0 -12 -3 -9 -6 3 -4 -9 -24
-27 -46 -18 -21 -46 -67 -62 -103 l-29 -64 -70 -23 c-135 -44 -284 -23 -402
58 -67 46 -116 106 -155 191 -62 131 -49 307 32 431 115 179 345 256 543 182z
m9739 -331 c120 -35 242 -150 283 -269 63 -182 19 -369 -116 -494 -99 -92
-214 -133 -344 -123 -224 17 -403 194 -422 417 -20 237 163 464 393 489 83 9
118 5 206 -20z m-9073 -218 c315 -98 425 -495 206 -739 -180 -200 -488 -204
-672 -9 -92 97 -128 200 -121 341 4 74 11 104 36 158 35 76 114 166 180 205
107 63 255 80 371 44z m8466 -395 c13 -32 35 -76 50 -98 15 -22 25 -41 23 -43
-11 -10 -90 -45 -101 -45 -17 0 -60 46 -80 85 -19 39 -30 97 -20 111 10 14 85
54 96 51 5 -1 19 -29 32 -61z m-7553 -388 c35 -53 47 -65 57 -55 8 8 50 12
130 12 115 0 118 -1 192 -37 290 -143 353 -507 127 -737 -172 -176 -470 -174
-644 5 -153 156 -175 394 -53 577 l30 46 -45 68 c-45 66 -46 68 -24 74 48 13
106 49 139 87 19 21 37 36 40 33 4 -3 26 -36 51 -73z m7777 -113 c147 -159
153 -416 14 -591 -45 -56 -129 -116 -195 -140 -154 -56 -343 -22 -457 82 l-42
37 53 17 c135 42 287 148 373 261 81 107 155 293 155 389 l0 31 28 -20 c16
-11 47 -41 71 -66z m-1152 -431 c23 -13 51 -36 62 -50 l21 -27 -32 -56 c-17
-31 -32 -58 -34 -59 -1 -2 -24 11 -51 29 -26 18 -73 42 -104 54 l-56 20 35 64
35 63 41 -6 c23 -4 60 -18 83 -32z m-236 -124 c277 -51 445 -346 347 -609 -27
-73 -65 -128 -128 -184 -264 -238 -690 -83 -750 272 -51 305 227 577 531 521z"/>
</g>
</svg>
